  0
SECTION
  2
HEADER
  9
$ACADVER
  1
AC1014
  9
$HANDSEED
  5
FFFF
  9
$MEASUREMENT
 70
     1
  0
ENDSEC
  0
SECTION
  2
TABLES
  0
TABLE
  2
VPORT
  5
8
330
0
100
AcDbSymbolTable
 70
     4
  0
VPORT
  5
2E
330
8
100
AcDbSymbolTableRecord
100
AcDbViewportTableRecord
  2
*ACTIVE
 70
     0
 10
0.0
 20
0.0
 11
1.0
 21
1.0
 12
210.0
 22
148.5
 13
0.0
 23
0.0
 14
10.0
 24
10.0
 15
10.0
 25
10.0
 16
0.0
 26
0.0
 36
1.0
 17
0.0
 27
0.0
 37
0.0
 40
341.0
 41
1.24
 42
50.0
 43
0.0
 44
0.0
 50
0.0
 51
0.0
 71
     0
 72
   100
 73
     1
 74
     3
 75
     0
 76
     0
 77
     0
 78
     0
  0
ENDTAB
  0
TABLE
  2
LTYPE
  5
5
330
0
100
AcDbSymbolTable
 70
     1
  0
LTYPE
  5
14
330
5
100
AcDbSymbolTableRecord
100
AcDbLinetypeTableRecord
  2
BYBLOCK
 70
     0
  3

 72
    65
 73
     0
 40
0.0
  0
LTYPE
  5
15
330
5
100
AcDbSymbolTableRecord
100
AcDbLinetypeTableRecord
  2
BYLAYER
 70
     0
  3

 72
    65
 73
     0
 40
0.0
  0
LTYPE
  5
16
330
5
100
AcDbSymbolTableRecord
100
AcDbLinetypeTableRecord
  2
CONTINUOUS
 70
     0
  3
Solid line
 72
    65
 73
     0
 40
0.0
  0
ENDTAB
  0
TABLE
  2
LAYER
  5
2
100
AcDbSymbolTable
 70
1
  0
LAYER
  5
50
100
AcDbSymbolTableRecord
100
AcDbLayerTableRecord
  2
0
 70
0
  6
CONTINUOUS
  0
ENDTAB
  0
TABLE
  2
STYLE
  5
3
330
0
100
AcDbSymbolTable
 70
     1
  0
STYLE
  5
11
330
3
100
AcDbSymbolTableRecord
100
AcDbTextStyleTableRecord
  2
STANDARD
 70
     0
 40
0.0
 41
1.0
 50
0.0
 71
     0
 42
2.5
  3
txt
  4

  0
ENDTAB
  0
TABLE
  2
VIEW
  5
6
330
0
100
AcDbSymbolTable
 70
     0
  0
ENDTAB
  0
TABLE
  2
UCS
  5
7
330
0
100
AcDbSymbolTable
 70
     0
  0
ENDTAB
  0
TABLE
  2
APPID
  5
9
330
0
100
AcDbSymbolTable
 70
     2
  0
APPID
  5
12
330
9
100
AcDbSymbolTableRecord
100
AcDbRegAppTableRecord
  2
ACAD
 70
     0
  0
ENDTAB
  0
TABLE
  2
DIMSTYLE
  5
A
330
0
100
AcDbSymbolTable
 70
     1
  0
DIMSTYLE
105
27
330
A
100
AcDbSymbolTableRecord
100
AcDbDimStyleTableRecord
  2
ISO-25
 70
     0
  3

  4

  5

  6

  7

 40
1.0
 41
2.5
 42
0.625
 43
3.75
 44
1.25
 45
0.0
 46
0.0
 47
0.0
 48
0.0
140
2.5
141
2.5
142
0.0
143
0.03937007874016
144
1.0
145
0.0
146
1.0
147
0.625
 71
     0
 72
     0
 73
     0
 74
     0
 75
     0
 76
     0
 77
     1
 78
     8
170
     0
171
     3
172
     1
173
     0
174
     0
175
     0
176
     0
177
     0
178
     0
270
     2
271
     2
272
     2
273
     2
274
     3
340
11
275
     0
280
     0
281
     0
282
     0
283
     0
284
     8
285
     0
286
     0
287
     3
288
     0
  0
ENDTAB
  0
TABLE
  2
BLOCK_RECORD
  5
1
330
0
100
AcDbSymbolTable
 70
     1
  0
BLOCK_RECORD
  5
1F
330
1
100
AcDbSymbolTableRecord
100
AcDbBlockTableRecord
  2
*MODEL_SPACE
  0
BLOCK_RECORD
  5
1B
330
1
100
AcDbSymbolTableRecord
100
AcDbBlockTableRecord
  2
*PAPER_SPACE
  0
ENDTAB
  0
ENDSEC
  0
SECTION
  2
BLOCKS
  0
BLOCK
  5
20
330
1F
100
AcDbEntity
  8
0
100
AcDbBlockBegin
  2
*MODEL_SPACE
 70
     0
 10
0.0
 20
0.0
 30
0.0
  3
*MODEL_SPACE
  1

  0
ENDBLK
  5
21
330
1F
100
AcDbEntity
  8
0
100
AcDbBlockEnd
  0
BLOCK
  5
1C
330
1B
100
AcDbEntity
 67
     1
  8
0
100
AcDbBlockBegin
  2
*PAPER_SPACE
  1

  0
ENDBLK
  5
1D
330
1B
100
AcDbEntity
 67
     1
  8
0
100
AcDbBlockEnd
  0
ENDSEC
  0
SECTION
  2
ENTITIES
  0
SPLINE
  5
100
100
AcDbEntity
  8
0
 62
7
100
AcDbSpline
 70
8
 71
3
 72
8
 73
4
 74
0
 40
0
 40
0
 40
0
 40
0
 40
1
 40
1
 40
1
 40
1
 10
2.099687
 20
0.682500
 30
0.0
 10
2.094479
 20
0.680312
 30
0.0
 10
2.090417
 20
0.677812
 30
0.0
 10
2.086146
 20
0.677083
 30
0.0
  0
SPLINE
  5
101
100
AcDbEntity
  8
0
 62
7
100
AcDbSpline
 70
8
 71
3
 72
8
 73
4
 74
0
 40
0
 40
0
 40
0
 40
0
 40
1
 40
1
 40
1
 40
1
 10
2.086146
 20
0.677083
 30
0.0
 10
2.068854
 20
0.674271
 30
0.0
 10
2.051458
 20
0.674792
 30
0.0
 10
2.033958
 20
0.675833
 30
0.0
  0
SPLINE
  5
102
100
AcDbEntity
  8
0
 62
7
100
AcDbSpline
 70
8
 71
3
 72
8
 73
4
 74
0
 40
0
 40
0
 40
0
 40
0
 40
1
 40
1
 40
1
 40
1
 10
2.033958
 20
0.675833
 30
0.0
 10
2.017083
 20
0.676771
 30
0.0
 10
2.000104
 20
0.675208
 30
0.0
 10
1.983229
 20
0.675208
 30
0.0
  0
SPLINE
  5
103
100
AcDbEntity
  8
0
 62
7
100
AcDbSpline
 70
8
 71
3
 72
8
 73
4
 74
0
 40
0
 40
0
 40
0
 40
0
 40
1
 40
1
 40
1
 40
1
 10
1.983229
 20
0.675208
 30
0.0
 10
1.969583
 20
0.675208
 30
0.0
 10
1.955937
 20
0.676250
 30
0.0
 10
1.942187
 20
0.676562
 30
0.0
  0
SPLINE
  5
104
100
AcDbEntity
  8
0
 62
7
100
AcDbSpline
 70
8
 71
3
 72
8
 73
4
 74
0
 40
0
 40
0
 40
0
 40
0
 40
1
 40
1
 40
1
 40
1
 10
1.942187
 20
0.676562
 30
0.0
 10
1.928021
 20
0.676771
 30
0.0
 10
1.913958
 20
0.676250
 30
0.0
 10
1.899792
 20
0.676562
 30
0.0
  0
SPLINE
  5
105
100
AcDbEntity
  8
0
 62
7
100
AcDbSpline
 70
8
 71
3
 72
8
 73
4
 74
0
 40
0
 40
0
 40
0
 40
0
 40
1
 40
1
 40
1
 40
1
 10
1.899792
 20
0.676562
 30
0.0
 10
1.882604
 20
0.676979
 30
0.0
 10
1.865417
 20
0.678229
 30
0.0
 10
1.848229
 20
0.678646
 30
0.0
  0
SPLINE
  5
106
100
AcDbEntity
  8
0
 62
7
100
AcDbSpline
 70
8
 71
3
 72
8
 73
4
 74
0
 40
0
 40
0
 40
0
 40
0
 40
1
 40
1
 40
1
 40
1
 10
1.848229
 20
0.678646
 30
0.0
 10
1.842083
 20
0.678854
 30
0.0
 10
1.835833
 20
0.677292
 30
0.0
 10
1.829687
 20
0.677396
 30
0.0
  0
SPLINE
  5
107
100
AcDbEntity
  8
0
 62
7
100
AcDbSpline
 70
8
 71
3
 72
8
 73
4
 74
0
 40
0
 40
0
 40
0
 40
0
 40
1
 40
1
 40
1
 40
1
 10
1.829687
 20
0.677396
 30
0.0
 10
1.807708
 20
0.677917
 30
0.0
 10
1.785833
 20
0.678750
 30
0.0
 10
1.763854
 20
0.679479
 30
0.0
  0
SPLINE
  5
108
100
AcDbEntity
  8
0
 62
7
100
AcDbSpline
 70
8
 71
3
 72
8
 73
4
 74
0
 40
0
 40
0
 40
0
 40
0
 40
1
 40
1
 40
1
 40
1
 10
1.763854
 20
0.679479
 30
0.0
 10
1.762188
 20
0.679583
 30
0.0
 10
1.760521
 20
0.679271
 30
0.0
 10
1.758854
 20
0.679271
 30
0.0
  0
SPLINE
  5
109
100
AcDbEntity
  8
0
 62
7
100
AcDbSpline
 70
8
 71
3
 72
8
 73
4
 74
0
 40
0
 40
0
 40
0
 40
0
 40
1
 40
1
 40
1
 40
1
 10
1.758854
 20
0.679271
 30
0.0
 10
1.734896
 20
0.678958
 30
0.0
 10
1.710833
 20
0.678437
 30
0.0
 10
1.686875
 20
0.678229
 30
0.0
  0
SPLINE
  5
10a
100
AcDbEntity
  8
0
 62
7
100
AcDbSpline
 70
8
 71
3
 72
8
 73
4
 74
0
 40
0
 40
0
 40
0
 40
0
 40
1
 40
1
 40
1
 40
1
 10
1.686875
 20
0.678229
 30
0.0
 10
1.665833
 20
0.678021
 30
0.0
 10
1.644792
 20
0.677812
 30
0.0
 10
1.623750
 20
0.678333
 30
0.0
  0
SPLINE
  5
10b
100
AcDbEntity
  8
0
 62
7
100
AcDbSpline
 70
8
 71
3
 72
8
 73
4
 74
0
 40
0
 40
0
 40
0
 40
0
 40
1
 40
1
 40
1
 40
1
 10
1.623750
 20
0.678333
 30
0.0
 10
1.591042
 20
0.679062
 30
0.0
 10
1.558229
 20
0.680417
 30
0.0
 10
1.525521
 20
0.681354
 30
0.0
  0
SPLINE
  5
10c
100
AcDbEntity
  8
0
 62
7
100
AcDbSpline
 70
8
 71
3
 72
8
 73
4
 74
0
 40
0
 40
0
 40
0
 40
0
 40
1
 40
1
 40
1
 40
1
 10
1.525521
 20
0.681354
 30
0.0
 10
1.516875
 20
0.681562
 30
0.0
 10
1.508125
 20
0.681146
 30
0.0
 10
1.499479
 20
0.681146
 30
0.0
  0
SPLINE
  5
10d
100
AcDbEntity
  8
0
 62
7
100
AcDbSpline
 70
8
 71
3
 72
8
 73
4
 74
0
 40
0
 40
0
 40
0
 40
0
 40
1
 40
1
 40
1
 40
1
 10
1.499479
 20
0.681146
 30
0.0
 10
1.490417
 20
0.681146
 30
0.0
 10
1.481250
 20
0.681458
 30
0.0
 10
1.472187
 20
0.681354
 30
0.0
  0
SPLINE
  5
10e
100
AcDbEntity
  8
0
 62
7
100
AcDbSpline
 70
8
 71
3
 72
8
 73
4
 74
0
 40
0
 40
0
 40
0
 40
0
 40
1
 40
1
 40
1
 40
1
 10
1.472187
 20
0.681354
 30
0.0
 10
1.467292
 20
0.681250
 30
0.0
 10
1.462292
 20
0.680104
 30
0.0
 10
1.457396
 20
0.680208
 30
0.0
  0
SPLINE
  5
10f
100
AcDbEntity
  8
0
 62
7
100
AcDbSpline
 70
8
 71
3
 72
8
 73
4
 74
0
 40
0
 40
0
 40
0
 40
0
 40
1
 40
1
 40
1
 40
1
 10
1.457396
 20
0.680208
 30
0.0
 10
1.443750
 20
0.680417
 30
0.0
 10
1.430000
 20
0.681250
 30
0.0
 10
1.416354
 20
0.681458
 30
0.0
  0
SPLINE
  5
110
100
AcDbEntity
  8
0
 62
7
100
AcDbSpline
 70
8
 71
3
 72
8
 73
4
 74
0
 40
0
 40
0
 40
0
 40
0
 40
1
 40
1
 40
1
 40
1
 10
1.416354
 20
0.681458
 30
0.0
 10
1.406354
 20
0.681667
 30
0.0
 10
1.396354
 20
0.681458
 30
0.0
 10
1.386458
 20
0.681042
 30
0.0
  0
SPLINE
  5
111
100
AcDbEntity
  8
0
 62
7
100
AcDbSpline
 70
8
 71
3
 72
8
 73
4
 74
0
 40
0
 40
0
 40
0
 40
0
 40
1
 40
1
 40
1
 40
1
 10
1.386458
 20
0.681042
 30
0.0
 10
1.373333
 20
0.680521
 30
0.0
 10
1.360000
 20
0.678333
 30
0.0
 10
1.347813
 20
0.685729
 30
0.0
  0
SPLINE
  5
112
100
AcDbEntity
  8
0
 62
7
100
AcDbSpline
 70
8
 71
3
 72
8
 73
4
 74
0
 40
0
 40
0
 40
0
 40
0
 40
1
 40
1
 40
1
 40
1
 10
1.347813
 20
0.685729
 30
0.0
 10
1.346563
 20
0.686458
 30
0.0
 10
1.344167
 20
0.686562
 30
0.0
 10
1.343021
 20
0.685833
 30
0.0
  0
SPLINE
  5
113
100
AcDbEntity
  8
0
 62
7
100
AcDbSpline
 70
8
 71
3
 72
8
 73
4
 74
0
 40
0
 40
0
 40
0
 40
0
 40
1
 40
1
 40
1
 40
1
 10
1.343021
 20
0.685833
 30
0.0
 10
1.331146
 20
0.678125
 30
0.0
 10
1.318021
 20
0.682917
 30
0.0
 10
1.305625
 20
0.682292
 30
0.0
  0
SPLINE
  5
114
100
AcDbEntity
  8
0
 62
7
100
AcDbSpline
 70
8
 71
3
 72
8
 73
4
 74
0
 40
0
 40
0
 40
0
 40
0
 40
1
 40
1
 40
1
 40
1
 10
1.305625
 20
0.682292
 30
0.0
 10
1.291354
 20
0.681562
 30
0.0
 10
1.276875
 20
0.684062
 30
0.0
 10
1.262500
 20
0.684167
 30
0.0
  0
SPLINE
  5
115
100
AcDbEntity
  8
0
 62
7
100
AcDbSpline
 70
8
 71
3
 72
8
 73
4
 74
0
 40
0
 40
0
 40
0
 40
0
 40
1
 40
1
 40
1
 40
1
 10
1.262500
 20
0.684167
 30
0.0
 10
1.245208
 20
0.684271
 30
0.0
 10
1.227917
 20
0.682812
 30
0.0
 10
1.210521
 20
0.682812
 30
0.0
  0
SPLINE
  5
116
100
AcDbEntity
  8
0
 62
7
100
AcDbSpline
 70
8
 71
3
 72
8
 73
4
 74
0
 40
0
 40
0
 40
0
 40
0
 40
1
 40
1
 40
1
 40
1
 10
1.210521
 20
0.682812
 30
0.0
 10
1.199792
 20
0.682708
 30
0.0
 10
1.188958
 20
0.683437
 30
0.0
 10
1.178229
 20
0.684687
 30
0.0
  0
SPLINE
  5
117
100
AcDbEntity
  8
0
 62
7
100
AcDbSpline
 70
8
 71
3
 72
8
 73
4
 74
0
 40
0
 40
0
 40
0
 40
0
 40
1
 40
1
 40
1
 40
1
 10
1.178229
 20
0.684687
 30
0.0
 10
1.165313
 20
0.686250
 30
0.0
 10
1.152813
 20
0.684271
 30
0.0
 10
1.140000
 20
0.683437
 30
0.0
  0
SPLINE
  5
118
100
AcDbEntity
  8
0
 62
7
100
AcDbSpline
 70
8
 71
3
 72
8
 73
4
 74
0
 40
0
 40
0
 40
0
 40
0
 40
1
 40
1
 40
1
 40
1
 10
1.140000
 20
0.683437
 30
0.0
 10
1.126875
 20
0.682604
 30
0.0
 10
1.113542
 20
0.683542
 30
0.0
 10
1.100313
 20
0.683750
 30
0.0
  0
SPLINE
  5
119
100
AcDbEntity
  8
0
 62
7
100
AcDbSpline
 70
8
 71
3
 72
8
 73
4
 74
0
 40
0
 40
0
 40
0
 40
0
 40
1
 40
1
 40
1
 40
1
 10
1.100313
 20
0.683750
 30
0.0
 10
1.091146
 20
0.683854
 30
0.0
 10
1.082083
 20
0.684062
 30
0.0
 10
1.072917
 20
0.684271
 30
0.0
  0
SPLINE
  5
11a
100
AcDbEntity
  8
0
 62
7
100
AcDbSpline
 70
8
 71
3
 72
8
 73
4
 74
0
 40
0
 40
0
 40
0
 40
0
 40
1
 40
1
 40
1
 40
1
 10
1.072917
 20
0.684271
 30
0.0
 10
1.069271
 20
0.684375
 30
0.0
 10
1.065729
 20
0.684687
 30
0.0
 10
1.062083
 20
0.685208
 30
0.0
  0
SPLINE
  5
11b
100
AcDbEntity
  8
0
 62
7
100
AcDbSpline
 70
8
 71
3
 72
8
 73
4
 74
0
 40
0
 40
0
 40
0
 40
0
 40
1
 40
1
 40
1
 40
1
 10
1.062083
 20
0.685208
 30
0.0
 10
1.060417
 20
0.685417
 30
0.0
 10
1.058854
 20
0.686458
 30
0.0
 10
1.057292
 20
0.686562
 30
0.0
  0
SPLINE
  5
11c
100
AcDbEntity
  8
0
 62
7
100
AcDbSpline
 70
8
 71
3
 72
8
 73
4
 74
0
 40
0
 40
0
 40
0
 40
0
 40
1
 40
1
 40
1
 40
1
 10
1.057292
 20
0.686562
 30
0.0
 10
1.046146
 20
0.686875
 30
0.0
 10
1.035104
 20
0.687292
 30
0.0
 10
1.023958
 20
0.687292
 30
0.0
  0
SPLINE
  5
11d
100
AcDbEntity
  8
0
 62
7
100
AcDbSpline
 70
8
 71
3
 72
8
 73
4
 74
0
 40
0
 40
0
 40
0
 40
0
 40
1
 40
1
 40
1
 40
1
 10
1.023958
 20
0.687292
 30
0.0
 10
1.013229
 20
0.687292
 30
0.0
 10
1.002604
 20
0.686354
 30
0.0
 10
0.991875
 20
0.686458
 30
0.0
  0
SPLINE
  5
11e
100
AcDbEntity
  8
0
 62
7
100
AcDbSpline
 70
8
 71
3
 72
8
 73
4
 74
0
 40
0
 40
0
 40
0
 40
0
 40
1
 40
1
 40
1
 40
1
 10
0.991875
 20
0.686458
 30
0.0
 10
0.980313
 20
0.686562
 30
0.0
 10
0.968750
 20
0.687604
 30
0.0
 10
0.957188
 20
0.688021
 30
0.0
  0
SPLINE
  5
11f
100
AcDbEntity
  8
0
 62
7
100
AcDbSpline
 70
8
 71
3
 72
8
 73
4
 74
0
 40
0
 40
0
 40
0
 40
0
 40
1
 40
1
 40
1
 40
1
 10
0.957188
 20
0.688021
 30
0.0
 10
0.954375
 20
0.688125
 30
0.0
 10
0.951458
 20
0.687083
 30
0.0
 10
0.948646
 20
0.686562
 30
0.0
  0
SPLINE
  5
120
100
AcDbEntity
  8
0
 62
7
100
AcDbSpline
 70
8
 71
3
 72
8
 73
4
 74
0
 40
0
 40
0
 40
0
 40
0
 40
1
 40
1
 40
1
 40
1
 10
0.948646
 20
0.686562
 30
0.0
 10
0.945833
 20
0.686042
 30
0.0
 10
0.942813
 20
0.684583
 30
0.0
 10
0.940208
 20
0.685104
 30
0.0
  0
SPLINE
  5
121
100
AcDbEntity
  8
0
 62
7
100
AcDbSpline
 70
8
 71
3
 72
8
 73
4
 74
0
 40
0
 40
0
 40
0
 40
0
 40
1
 40
1
 40
1
 40
1
 10
0.940208
 20
0.685104
 30
0.0
 10
0.921667
 20
0.688542
 30
0.0
 10
0.903229
 20
0.687083
 30
0.0
 10
0.884583
 20
0.686562
 30
0.0
  0
SPLINE
  5
122
100
AcDbEntity
  8
0
 62
7
100
AcDbSpline
 70
8
 71
3
 72
8
 73
4
 74
0
 40
0
 40
0
 40
0
 40
0
 40
1
 40
1
 40
1
 40
1
 10
0.884583
 20
0.686562
 30
0.0
 10
0.861354
 20
0.685833
 30
0.0
 10
0.838125
 20
0.687812
 30
0.0
 10
0.814896
 20
0.688333
 30
0.0
  0
SPLINE
  5
123
100
AcDbEntity
  8
0
 62
7
100
AcDbSpline
 70
8
 71
3
 72
8
 73
4
 74
0
 40
0
 40
0
 40
0
 40
0
 40
1
 40
1
 40
1
 40
1
 10
0.814896
 20
0.688333
 30
0.0
 10
0.804271
 20
0.688542
 30
0.0
 10
0.793542
 20
0.687708
 30
0.0
 10
0.782917
 20
0.687708
 30
0.0
  0
SPLINE
  5
124
100
AcDbEntity
  8
0
 62
7
100
AcDbSpline
 70
8
 71
3
 72
8
 73
4
 74
0
 40
0
 40
0
 40
0
 40
0
 40
1
 40
1
 40
1
 40
1
 10
0.782917
 20
0.687708
 30
0.0
 10
0.764688
 20
0.687708
 30
0.0
 10
0.746458
 20
0.687917
 30
0.0
 10
0.728229
 20
0.688125
 30
0.0
  0
SPLINE
  5
125
100
AcDbEntity
  8
0
 62
7
100
AcDbSpline
 70
8
 71
3
 72
8
 73
4
 74
0
 40
0
 40
0
 40
0
 40
0
 40
1
 40
1
 40
1
 40
1
 10
0.728229
 20
0.688125
 30
0.0
 10
0.722917
 20
0.688229
 30
0.0
 10
0.717604
 20
0.689062
 30
0.0
 10
0.712396
 20
0.688958
 30
0.0
  0
SPLINE
  5
126
100
AcDbEntity
  8
0
 62
7
100
AcDbSpline
 70
8
 71
3
 72
8
 73
4
 74
0
 40
0
 40
0
 40
0
 40
0
 40
1
 40
1
 40
1
 40
1
 10
0.712396
 20
0.688958
 30
0.0
 10
0.695104
 20
0.688854
 30
0.0
 10
0.677708
 20
0.688333
 30
0.0
 10
0.660417
 20
0.688333
 30
0.0
  0
SPLINE
  5
127
100
AcDbEntity
  8
0
 62
7
100
AcDbSpline
 70
8
 71
3
 72
8
 73
4
 74
0
 40
0
 40
0
 40
0
 40
0
 40
1
 40
1
 40
1
 40
1
 10
0.660417
 20
0.688333
 30
0.0
 10
0.645938
 20
0.688333
 30
0.0
 10
0.631458
 20
0.689167
 30
0.0
 10
0.616979
 20
0.689271
 30
0.0
  0
SPLINE
  5
128
100
AcDbEntity
  8
0
 62
7
100
AcDbSpline
 70
8
 71
3
 72
8
 73
4
 74
0
 40
0
 40
0
 40
0
 40
0
 40
1
 40
1
 40
1
 40
1
 10
0.616979
 20
0.689271
 30
0.0
 10
0.605000
 20
0.689375
 30
0.0
 10
0.593021
 20
0.688750
 30
0.0
 10
0.581042
 20
0.688542
 30
0.0
  0
SPLINE
  5
129
100
AcDbEntity
  8
0
 62
7
100
AcDbSpline
 70
8
 71
3
 72
8
 73
4
 74
0
 40
0
 40
0
 40
0
 40
0
 40
1
 40
1
 40
1
 40
1
 10
0.581042
 20
0.688542
 30
0.0
 10
0.574896
 20
0.688437
 30
0.0
 10
0.568750
 20
0.687812
 30
0.0
 10
0.562708
 20
0.688437
 30
0.0
  0
SPLINE
  5
12a
100
AcDbEntity
  8
0
 62
7
100
AcDbSpline
 70
8
 71
3
 72
8
 73
4
 74
0
 40
0
 40
0
 40
0
 40
0
 40
1
 40
1
 40
1
 40
1
 10
0.562708
 20
0.688437
 30
0.0
 10
0.539375
 20
0.690833
 30
0.0
 10
0.515729
 20
0.689792
 30
0.0
 10
0.492500
 20
0.694271
 30
0.0
  0
SPLINE
  5
12b
100
AcDbEntity
  8
0
 62
7
100
AcDbSpline
 70
8
 71
3
 72
8
 73
4
 74
0
 40
0
 40
0
 40
0
 40
0
 40
1
 40
1
 40
1
 40
1
 10
0.492500
 20
0.694271
 30
0.0
 10
0.489688
 20
0.694792
 30
0.0
 10
0.486667
 20
0.694167
 30
0.0
 10
0.483750
 20
0.694375
 30
0.0
  0
SPLINE
  5
12c
100
AcDbEntity
  8
0
 62
7
100
AcDbSpline
 70
8
 71
3
 72
8
 73
4
 74
0
 40
0
 40
0
 40
0
 40
0
 40
1
 40
1
 40
1
 40
1
 10
0.483750
 20
0.694375
 30
0.0
 10
0.479167
 20
0.694687
 30
0.0
 10
0.474583
 20
0.694896
 30
0.0
 10
0.470104
 20
0.695521
 30
0.0
  0
SPLINE
  5
12d
100
AcDbEntity
  8
0
 62
7
100
AcDbSpline
 70
8
 71
3
 72
8
 73
4
 74
0
 40
0
 40
0
 40
0
 40
0
 40
1
 40
1
 40
1
 40
1
 10
0.470104
 20
0.695521
 30
0.0
 10
0.456250
 20
0.697396
 30
0.0
 10
0.443958
 20
0.704479
 30
0.0
 10
0.430417
 20
0.707812
 30
0.0
  0
SPLINE
  5
12e
100
AcDbEntity
  8
0
 62
7
100
AcDbSpline
 70
8
 71
3
 72
8
 73
4
 74
0
 40
0
 40
0
 40
0
 40
0
 40
1
 40
1
 40
1
 40
1
 10
0.430417
 20
0.707812
 30
0.0
 10
0.417500
 20
0.711042
 30
0.0
 10
0.405521
 20
0.718958
 30
0.0
 10
0.393646
 20
0.725521
 30
0.0
  0
SPLINE
  5
12f
100
AcDbEntity
  8
0
 62
7
100
AcDbSpline
 70
8
 71
3
 72
8
 73
4
 74
0
 40
0
 40
0
 40
0
 40
0
 40
1
 40
1
 40
1
 40
1
 10
0.393646
 20
0.725521
 30
0.0
 10
0.383125
 20
0.731354
 30
0.0
 10
0.373229
 20
0.738229
 30
0.0
 10
0.363125
 20
0.744896
 30
0.0
  0
SPLINE
  5
130
100
AcDbEntity
  8
0
 62
7
100
AcDbSpline
 70
8
 71
3
 72
8
 73
4
 74
0
 40
0
 40
0
 40
0
 40
0
 40
1
 40
1
 40
1
 40
1
 10
0.363125
 20
0.744896
 30
0.0
 10
0.359375
 20
0.747396
 30
0.0
 10
0.355625
 20
0.750000
 30
0.0
 10
0.352292
 20
0.753021
 30
0.0
  0
SPLINE
  5
131
100
AcDbEntity
  8
0
 62
7
100
AcDbSpline
 70
8
 71
3
 72
8
 73
4
 74
0
 40
0
 40
0
 40
0
 40
0
 40
1
 40
1
 40
1
 40
1
 10
0.352292
 20
0.753021
 30
0.0
 10
0.340938
 20
0.763021
 30
0.0
 10
0.329375
 20
0.772812
 30
0.0
 10
0.318750
 20
0.783542
 30
0.0
  0
SPLINE
  5
132
100
AcDbEntity
  8
0
 62
7
100
AcDbSpline
 70
8
 71
3
 72
8
 73
4
 74
0
 40
0
 40
0
 40
0
 40
0
 40
1
 40
1
 40
1
 40
1
 10
0.318750
 20
0.783542
 30
0.0
 10
0.312083
 20
0.790208
 30
0.0
 10
0.306875
 20
0.798437
 30
0.0
 10
0.301458
 20
0.806250
 30
0.0
  0
SPLINE
  5
133
100
AcDbEntity
  8
0
 62
7
100
AcDbSpline
 70
8
 71
3
 72
8
 73
4
 74
0
 40
0
 40
0
 40
0
 40
0
 40
1
 40
1
 40
1
 40
1
 10
0.301458
 20
0.806250
 30
0.0
 10
0.282813
 20
0.833021
 30
0.0
 10
0.268438
 20
0.861979
 30
0.0
 10
0.261771
 20
0.893958
 30
0.0
  0
SPLINE
  5
134
100
AcDbEntity
  8
0
 62
7
100
AcDbSpline
 70
8
 71
3
 72
8
 73
4
 74
0
 40
0
 40
0
 40
0
 40
0
 40
1
 40
1
 40
1
 40
1
 10
0.261771
 20
0.893958
 30
0.0
 10
0.258021
 20
0.911771
 30
0.0
 10
0.254792
 20
0.930000
 30
0.0
 10
0.254375
 20
0.948125
 30
0.0
  0
SPLINE
  5
135
100
AcDbEntity
  8
0
 62
7
100
AcDbSpline
 70
8
 71
3
 72
8
 73
4
 74
0
 40
0
 40
0
 40
0
 40
0
 40
1
 40
1
 40
1
 40
1
 10
0.254375
 20
0.948125
 30
0.0
 10
0.253438
 20
0.990000
 30
0.0
 10
0.254271
 20
1.031875
 30
0.0
 10
0.254479
 20
1.073750
 30
0.0
  0
SPLINE
  5
136
100
AcDbEntity
  8
0
 62
7
100
AcDbSpline
 70
8
 71
3
 72
8
 73
4
 74
0
 40
0
 40
0
 40
0
 40
0
 40
1
 40
1
 40
1
 40
1
 10
0.254479
 20
1.073750
 30
0.0
 10
0.254688
 20
1.114479
 30
0.0
 10
0.254688
 20
1.155208
 30
0.0
 10
0.255208
 20
1.195833
 30
0.0
  0
SPLINE
  5
137
100
AcDbEntity
  8
0
 62
7
100
AcDbSpline
 70
8
 71
3
 72
8
 73
4
 74
0
 40
0
 40
0
 40
0
 40
0
 40
1
 40
1
 40
1
 40
1
 10
0.255208
 20
1.195833
 30
0.0
 10
0.255833
 20
1.251458
 30
0.0
 10
0.256875
 20
1.307187
 30
0.0
 10
0.257292
 20
1.362812
 30
0.0
  0
SPLINE
  5
138
100
AcDbEntity
  8
0
 62
7
100
AcDbSpline
 70
8
 71
3
 72
8
 73
4
 74
0
 40
0
 40
0
 40
0
 40
0
 40
1
 40
1
 40
1
 40
1
 10
0.257292
 20
1.362812
 30
0.0
 10
0.257604
 20
1.401042
 30
0.0
 10
0.256771
 20
1.439271
 30
0.0
 10
0.257083
 20
1.477500
 30
0.0
  0
SPLINE
  5
139
100
AcDbEntity
  8
0
 62
7
100
AcDbSpline
 70
8
 71
3
 72
8
 73
4
 74
0
 40
0
 40
0
 40
0
 40
0
 40
1
 40
1
 40
1
 40
1
 10
0.257083
 20
1.477500
 30
0.0
 10
0.257292
 20
1.513229
 30
0.0
 10
0.258438
 20
1.548958
 30
0.0
 10
0.258854
 20
1.584792
 30
0.0
  0
SPLINE
  5
13a
100
AcDbEntity
  8
0
 62
7
100
AcDbSpline
 70
8
 71
3
 72
8
 73
4
 74
0
 40
0
 40
0
 40
0
 40
0
 40
1
 40
1
 40
1
 40
1
 10
0.258854
 20
1.584792
 30
0.0
 10
0.259063
 20
1.602604
 30
0.0
 10
0.258229
 20
1.620312
 30
0.0
 10
0.258333
 20
1.638125
 30
0.0
  0
SPLINE
  5
13b
100
AcDbEntity
  8
0
 62
7
100
AcDbSpline
 70
8
 71
3
 72
8
 73
4
 74
0
 40
0
 40
0
 40
0
 40
0
 40
1
 40
1
 40
1
 40
1
 10
0.258333
 20
1.638125
 30
0.0
 10
0.258646
 20
1.679271
 30
0.0
 10
0.259271
 20
1.720417
 30
0.0
 10
0.259688
 20
1.761458
 30
0.0
  0
SPLINE
  5
13c
100
AcDbEntity
  8
0
 62
7
100
AcDbSpline
 70
8
 71
3
 72
8
 73
4
 74
0
 40
0
 40
0
 40
0
 40
0
 40
1
 40
1
 40
1
 40
1
 10
0.259688
 20
1.761458
 30
0.0
 10
0.259896
 20
1.785521
 30
0.0
 10
0.260000
 20
1.809583
 30
0.0
 10
0.260104
 20
1.833750
 30
0.0
  0
SPLINE
  5
13d
100
AcDbEntity
  8
0
 62
7
100
AcDbSpline
 70
8
 71
3
 72
8
 73
4
 74
0
 40
0
 40
0
 40
0
 40
0
 40
1
 40
1
 40
1
 40
1
 10
0.260104
 20
1.833750
 30
0.0
 10
0.260208
 20
1.872708
 30
0.0
 10
0.260104
 20
1.911771
 30
0.0
 10
0.260208
 20
1.950729
 30
0.0
  0
SPLINE
  5
13e
100
AcDbEntity
  8
0
 62
7
100
AcDbSpline
 70
8
 71
3
 72
8
 73
4
 74
0
 40
0
 40
0
 40
0
 40
0
 40
1
 40
1
 40
1
 40
1
 10
0.260208
 20
1.950729
 30
0.0
 10
0.260313
 20
1.982604
 30
0.0
 10
0.260521
 20
2.014479
 30
0.0
 10
0.260833
 20
2.046354
 30
0.0
  0
SPLINE
  5
13f
100
AcDbEntity
  8
0
 62
7
100
AcDbSpline
 70
8
 71
3
 72
8
 73
4
 74
0
 40
0
 40
0
 40
0
 40
0
 40
1
 40
1
 40
1
 40
1
 10
0.260833
 20
2.046354
 30
0.0
 10
0.261354
 20
2.096250
 30
0.0
 10
0.262083
 20
2.146146
 30
0.0
 10
0.262500
 20
2.196042
 30
0.0
  0
SPLINE
  5
140
100
AcDbEntity
  8
0
 62
7
100
AcDbSpline
 70
8
 71
3
 72
8
 73
4
 74
0
 40
0
 40
0
 40
0
 40
0
 40
1
 40
1
 40
1
 40
1
 10
0.262500
 20
2.196042
 30
0.0
 10
0.262708
 20
2.225104
 30
0.0
 10
0.262500
 20
2.254271
 30
0.0
 10
0.262708
 20
2.283333
 30
0.0
  0
SPLINE
  5
141
100
AcDbEntity
  8
0
 62
7
100
AcDbSpline
 70
8
 71
3
 72
8
 73
4
 74
0
 40
0
 40
0
 40
0
 40
0
 40
1
 40
1
 40
1
 40
1
 10
0.262708
 20
2.283333
 30
0.0
 10
0.263125
 20
2.334375
 30
0.0
 10
0.263958
 20
2.385521
 30
0.0
 10
0.264271
 20
2.436562
 30
0.0
  0
SPLINE
  5
142
100
AcDbEntity
  8
0
 62
7
100
AcDbSpline
 70
8
 71
3
 72
8
 73
4
 74
0
 40
0
 40
0
 40
0
 40
0
 40
1
 40
1
 40
1
 40
1
 10
0.264271
 20
2.436562
 30
0.0
 10
0.264583
 20
2.483542
 30
0.0
 10
0.264271
 20
2.530625
 30
0.0
 10
0.264479
 20
2.577604
 30
0.0
  0
SPLINE
  5
143
100
AcDbEntity
  8
0
 62
7
100
AcDbSpline
 70
8
 71
3
 72
8
 73
4
 74
0
 40
0
 40
0
 40
0
 40
0
 40
1
 40
1
 40
1
 40
1
 10
0.264479
 20
2.577604
 30
0.0
 10
0.264688
 20
2.620521
 30
0.0
 10
0.264271
 20
2.663333
 30
0.0
 10
0.265625
 20
2.706250
 30
0.0
  0
SPLINE
  5
144
100
AcDbEntity
  8
0
 62
7
100
AcDbSpline
 70
8
 71
3
 72
8
 73
4
 74
0
 40
0
 40
0
 40
0
 40
0
 40
1
 40
1
 40
1
 40
1
 10
0.265625
 20
2.706250
 30
0.0
 10
0.266875
 20
2.747083
 30
0.0
 10
0.277813
 20
2.785521
 30
0.0
 10
0.297604
 20
2.821667
 30
0.0
  0
SPLINE
  5
145
100
AcDbEntity
  8
0
 62
7
100
AcDbSpline
 70
8
 71
3
 72
8
 73
4
 74
0
 40
0
 40
0
 40
0
 40
0
 40
1
 40
1
 40
1
 40
1
 10
0.297604
 20
2.821667
 30
0.0
 10
0.338542
 20
2.896458
 30
0.0
 10
0.401771
 20
2.940833
 30
0.0
 10
0.484063
 20
2.958958
 30
0.0
  0
SPLINE
  5
146
100
AcDbEntity
  8
0
 62
7
100
AcDbSpline
 70
8
 71
3
 72
8
 73
4
 74
0
 40
0
 40
0
 40
0
 40
0
 40
1
 40
1
 40
1
 40
1
 10
0.484063
 20
2.958958
 30
0.0
 10
0.500104
 20
2.962500
 30
0.0
 10
0.517188
 20
2.962396
 30
0.0
 10
0.533750
 20
2.962396
 30
0.0
  0
SPLINE
  5
147
100
AcDbEntity
  8
0
 62
7
100
AcDbSpline
 70
8
 71
3
 72
8
 73
4
 74
0
 40
0
 40
0
 40
0
 40
0
 40
1
 40
1
 40
1
 40
1
 10
0.533750
 20
2.962396
 30
0.0
 10
0.622500
 20
2.962083
 30
0.0
 10
0.711146
 20
2.961042
 30
0.0
 10
0.799896
 20
2.960521
 30
0.0
  0
SPLINE
  5
148
100
AcDbEntity
  8
0
 62
7
100
AcDbSpline
 70
8
 71
3
 72
8
 73
4
 74
0
 40
0
 40
0
 40
0
 40
0
 40
1
 40
1
 40
1
 40
1
 10
0.799896
 20
2.960521
 30
0.0
 10
0.831563
 20
2.960312
 30
0.0
 10
0.863229
 20
2.961146
 30
0.0
 10
0.894792
 20
2.960833
 30
0.0
  0
SPLINE
  5
149
100
AcDbEntity
  8
0
 62
7
100
AcDbSpline
 70
8
 71
3
 72
8
 73
4
 74
0
 40
0
 40
0
 40
0
 40
0
 40
1
 40
1
 40
1
 40
1
 10
0.894792
 20
2.960833
 30
0.0
 10
0.929375
 20
2.960521
 30
0.0
 10
0.963854
 20
2.959479
 30
0.0
 10
0.998438
 20
2.958750
 30
0.0
  0
SPLINE
  5
14a
100
AcDbEntity
  8
0
 62
7
100
AcDbSpline
 70
8
 71
3
 72
8
 73
4
 74
0
 40
0
 40
0
 40
0
 40
0
 40
1
 40
1
 40
1
 40
1
 10
0.998438
 20
2.958750
 30
0.0
 10
1.012604
 20
2.958437
 30
0.0
 10
1.026771
 20
2.958333
 30
0.0
 10
1.040938
 20
2.958333
 30
0.0
  0
SPLINE
  5
14b
100
AcDbEntity
  8
0
 62
7
100
AcDbSpline
 70
8
 71
3
 72
8
 73
4
 74
0
 40
0
 40
0
 40
0
 40
0
 40
1
 40
1
 40
1
 40
1
 10
1.040938
 20
2.958333
 30
0.0
 10
1.093854
 20
2.958229
 30
0.0
 10
1.146771
 20
2.958542
 30
0.0
 10
1.199688
 20
2.958229
 30
0.0
  0
SPLINE
  5
14c
100
AcDbEntity
  8
0
 62
7
100
AcDbSpline
 70
8
 71
3
 72
8
 73
4
 74
0
 40
0
 40
0
 40
0
 40
0
 40
1
 40
1
 40
1
 40
1
 10
1.199688
 20
2.958229
 30
0.0
 10
1.325104
 20
2.957500
 30
0.0
 10
1.450417
 20
2.956667
 30
0.0
 10
1.575833
 20
2.955521
 30
0.0
  0
SPLINE
  5
14d
100
AcDbEntity
  8
0
 62
7
100
AcDbSpline
 70
8
 71
3
 72
8
 73
4
 74
0
 40
0
 40
0
 40
0
 40
0
 40
1
 40
1
 40
1
 40
1
 10
1.575833
 20
2.955521
 30
0.0
 10
1.640312
 20
2.954896
 30
0.0
 10
1.704792
 20
2.953021
 30
0.0
 10
1.769375
 20
2.952187
 30
0.0
  0
SPLINE
  5
14e
100
AcDbEntity
  8
0
 62
7
100
AcDbSpline
 70
8
 71
3
 72
8
 73
4
 74
0
 40
0
 40
0
 40
0
 40
0
 40
1
 40
1
 40
1
 40
1
 10
1.769375
 20
2.952187
 30
0.0
 10
1.833958
 20
2.951354
 30
0.0
 10
1.898542
 20
2.951250
 30
0.0
 10
1.963021
 20
2.950417
 30
0.0
  0
SPLINE
  5
14f
100
AcDbEntity
  8
0
 62
7
100
AcDbSpline
 70
8
 71
3
 72
8
 73
4
 74
0
 40
0
 40
0
 40
0
 40
0
 40
1
 40
1
 40
1
 40
1
 10
1.963021
 20
2.950417
 30
0.0
 10
2.035104
 20
2.949479
 30
0.0
 10
2.107083
 20
2.948229
 30
0.0
 10
2.179167
 20
2.947083
 30
0.0
  0
SPLINE
  5
150
100
AcDbEntity
  8
0
 62
7
100
AcDbSpline
 70
8
 71
3
 72
8
 73
4
 74
0
 40
0
 40
0
 40
0
 40
0
 40
1
 40
1
 40
1
 40
1
 10
2.179167
 20
2.947083
 30
0.0
 10
2.208333
 20
2.946667
 30
0.0
 10
2.237396
 20
2.946771
 30
0.0
 10
2.266563
 20
2.945521
 30
0.0
  0
SPLINE
  5
151
100
AcDbEntity
  8
0
 62
7
100
AcDbSpline
 70
8
 71
3
 72
8
 73
4
 74
0
 40
0
 40
0
 40
0
 40
0
 40
1
 40
1
 40
1
 40
1
 10
2.266563
 20
2.945521
 30
0.0
 10
2.279375
 20
2.945000
 30
0.0
 10
2.292396
 20
2.942917
 30
0.0
 10
2.304688
 20
2.939375
 30
0.0
  0
SPLINE
  5
152
100
AcDbEntity
  8
0
 62
7
100
AcDbSpline
 70
8
 71
3
 72
8
 73
4
 74
0
 40
0
 40
0
 40
0
 40
0
 40
1
 40
1
 40
1
 40
1
 10
2.304688
 20
2.939375
 30
0.0
 10
2.331563
 20
2.931667
 30
0.0
 10
2.357708
 20
2.921562
 30
0.0
 10
2.381979
 20
2.907604
 30
0.0
  0
SPLINE
  5
153
100
AcDbEntity
  8
0
 62
7
100
AcDbSpline
 70
8
 71
3
 72
8
 73
4
 74
0
 40
0
 40
0
 40
0
 40
0
 40
1
 40
1
 40
1
 40
1
 10
2.381979
 20
2.907604
 30
0.0
 10
2.408854
 20
2.892187
 30
0.0
 10
2.432292
 20
2.872292
 30
0.0
 10
2.451458
 20
2.847917
 30
0.0
  0
SPLINE
  5
154
100
AcDbEntity
  8
0
 62
7
100
AcDbSpline
 70
8
 71
3
 72
8
 73
4
 74
0
 40
0
 40
0
 40
0
 40
0
 40
1
 40
1
 40
1
 40
1
 10
2.451458
 20
2.847917
 30
0.0
 10
2.481146
 20
2.810312
 30
0.0
 10
2.499583
 20
2.767917
 30
0.0
 10
2.506458
 20
2.720208
 30
0.0
  0
SPLINE
  5
155
100
AcDbEntity
  8
0
 62
7
100
AcDbSpline
 70
8
 71
3
 72
8
 73
4
 74
0
 40
0
 40
0
 40
0
 40
0
 40
1
 40
1
 40
1
 40
1
 10
2.506458
 20
2.720208
 30
0.0
 10
2.509792
 20
2.697396
 30
0.0
 10
2.510104
 20
2.674687
 30
0.0
 10
2.509792
 20
2.651771
 30
0.0
  0
SPLINE
  5
156
100
AcDbEntity
  8
0
 62
7
100
AcDbSpline
 70
8
 71
3
 72
8
 73
4
 74
0
 40
0
 40
0
 40
0
 40
0
 40
1
 40
1
 40
1
 40
1
 10
2.509792
 20
2.651771
 30
0.0
 10
2.509479
 20
2.624479
 30
0.0
 10
2.509688
 20
2.597083
 30
0.0
 10
2.509479
 20
2.569687
 30
0.0
  0
SPLINE
  5
157
100
AcDbEntity
  8
0
 62
7
100
AcDbSpline
 70
8
 71
3
 72
8
 73
4
 74
0
 40
0
 40
0
 40
0
 40
0
 40
1
 40
1
 40
1
 40
1
 10
2.509479
 20
2.569687
 30
0.0
 10
2.508958
 20
2.511875
 30
0.0
 10
2.508229
 20
2.453958
 30
0.0
 10
2.507708
 20
2.396146
 30
0.0
  0
SPLINE
  5
158
100
AcDbEntity
  8
0
 62
7
100
AcDbSpline
 70
8
 71
3
 72
8
 73
4
 74
0
 40
0
 40
0
 40
0
 40
0
 40
1
 40
1
 40
1
 40
1
 10
2.507708
 20
2.396146
 30
0.0
 10
2.507500
 20
2.367396
 30
0.0
 10
2.507708
 20
2.338646
 30
0.0
 10
2.507500
 20
2.310000
 30
0.0
  0
SPLINE
  5
159
100
AcDbEntity
  8
0
 62
7
100
AcDbSpline
 70
8
 71
3
 72
8
 73
4
 74
0
 40
0
 40
0
 40
0
 40
0
 40
1
 40
1
 40
1
 40
1
 10
2.507500
 20
2.310000
 30
0.0
 10
2.507083
 20
2.251354
 30
0.0
 10
2.506354
 20
2.192708
 30
0.0
 10
2.505937
 20
2.134062
 30
0.0
  0
SPLINE
  5
15a
100
AcDbEntity
  8
0
 62
7
100
AcDbSpline
 70
8
 71
3
 72
8
 73
4
 74
0
 40
0
 40
0
 40
0
 40
0
 40
1
 40
1
 40
1
 40
1
 10
2.505937
 20
2.134062
 30
0.0
 10
2.505729
 20
2.107396
 30
0.0
 10
2.505833
 20
2.080833
 30
0.0
 10
2.505729
 20
2.054167
 30
0.0
  0
SPLINE
  5
15b
100
AcDbEntity
  8
0
 62
7
100
AcDbSpline
 70
8
 71
3
 72
8
 73
4
 74
0
 40
0
 40
0
 40
0
 40
0
 40
1
 40
1
 40
1
 40
1
 10
2.505729
 20
2.054167
 30
0.0
 10
2.505521
 20
2.008646
 30
0.0
 10
2.505312
 20
1.963021
 30
0.0
 10
2.505000
 20
1.917500
 30
0.0
  0
SPLINE
  5
15c
100
AcDbEntity
  8
0
 62
7
100
AcDbSpline
 70
8
 71
3
 72
8
 73
4
 74
0
 40
0
 40
0
 40
0
 40
0
 40
1
 40
1
 40
1
 40
1
 10
2.505000
 20
1.917500
 30
0.0
 10
2.504687
 20
1.871458
 30
0.0
 10
2.504062
 20
1.825521
 30
0.0
 10
2.503750
 20
1.779479
 30
0.0
  0
SPLINE
  5
15d
100
AcDbEntity
  8
0
 62
7
100
AcDbSpline
 70
8
 71
3
 72
8
 73
4
 74
0
 40
0
 40
0
 40
0
 40
0
 40
1
 40
1
 40
1
 40
1
 10
2.503750
 20
1.779479
 30
0.0
 10
2.503333
 20
1.730937
 30
0.0
 10
2.503021
 20
1.682292
 30
0.0
 10
2.502917
 20
1.633750
 30
0.0
  0
SPLINE
  5
15e
100
AcDbEntity
  8
0
 62
7
100
AcDbSpline
 70
8
 71
3
 72
8
 73
4
 74
0
 40
0
 40
0
 40
0
 40
0
 40
1
 40
1
 40
1
 40
1
 10
2.502917
 20
1.633750
 30
0.0
 10
2.502708
 20
1.567187
 30
0.0
 10
2.502812
 20
1.500521
 30
0.0
 10
2.502500
 20
1.433958
 30
0.0
  0
SPLINE
  5
15f
100
AcDbEntity
  8
0
 62
7
100
AcDbSpline
 70
8
 71
3
 72
8
 73
4
 74
0
 40
0
 40
0
 40
0
 40
0
 40
1
 40
1
 40
1
 40
1
 10
2.502500
 20
1.433958
 30
0.0
 10
2.502396
 20
1.409896
 30
0.0
 10
2.501458
 20
1.385729
 30
0.0
 10
2.501250
 20
1.361667
 30
0.0
  0
SPLINE
  5
160
100
AcDbEntity
  8
0
 62
7
100
AcDbSpline
 70
8
 71
3
 72
8
 73
4
 74
0
 40
0
 40
0
 40
0
 40
0
 40
1
 40
1
 40
1
 40
1
 10
2.501250
 20
1.361667
 30
0.0
 10
2.500625
 20
1.294271
 30
0.0
 10
2.500208
 20
1.226875
 30
0.0
 10
2.499792
 20
1.159479
 30
0.0
  0
SPLINE
  5
161
100
AcDbEntity
  8
0
 62
7
100
AcDbSpline
 70
8
 71
3
 72
8
 73
4
 74
0
 40
0
 40
0
 40
0
 40
0
 40
1
 40
1
 40
1
 40
1
 10
2.499792
 20
1.159479
 30
0.0
 10
2.499687
 20
1.131771
 30
0.0
 10
2.500104
 20
1.103958
 30
0.0
 10
2.499792
 20
1.076250
 30
0.0
  0
SPLINE
  5
162
100
AcDbEntity
  8
0
 62
7
100
AcDbSpline
 70
8
 71
3
 72
8
 73
4
 74
0
 40
0
 40
0
 40
0
 40
0
 40
1
 40
1
 40
1
 40
1
 10
2.499792
 20
1.076250
 30
0.0
 10
2.499583
 20
1.053021
 30
0.0
 10
2.498437
 20
1.029896
 30
0.0
 10
2.498021
 20
1.006667
 30
0.0
  0
SPLINE
  5
163
100
AcDbEntity
  8
0
 62
7
100
AcDbSpline
 70
8
 71
3
 72
8
 73
4
 74
0
 40
0
 40
0
 40
0
 40
0
 40
1
 40
1
 40
1
 40
1
 10
2.498021
 20
1.006667
 30
0.0
 10
2.497812
 20
0.990000
 30
0.0
 10
2.498021
 20
0.973333
 30
0.0
 10
2.498229
 20
0.956771
 30
0.0
  0
SPLINE
  5
164
100
AcDbEntity
  8
0
 62
7
100
AcDbSpline
 70
8
 71
3
 72
8
 73
4
 74
0
 40
0
 40
0
 40
0
 40
0
 40
1
 40
1
 40
1
 40
1
 10
2.498229
 20
0.956771
 30
0.0
 10
2.498646
 20
0.924167
 30
0.0
 10
2.495833
 20
0.892083
 30
0.0
 10
2.484479
 20
0.861250
 30
0.0
  0
SPLINE
  5
165
100
AcDbEntity
  8
0
 62
7
100
AcDbSpline
 70
8
 71
3
 72
8
 73
4
 74
0
 40
0
 40
0
 40
0
 40
0
 40
1
 40
1
 40
1
 40
1
 10
2.484479
 20
0.861250
 30
0.0
 10
2.478646
 20
0.845417
 30
0.0
 10
2.473021
 20
0.829271
 30
0.0
 10
2.465000
 20
0.814479
 30
0.0
  0
SPLINE
  5
166
100
AcDbEntity
  8
0
 62
7
100
AcDbSpline
 70
8
 71
3
 72
8
 73
4
 74
0
 40
0
 40
0
 40
0
 40
0
 40
1
 40
1
 40
1
 40
1
 10
2.465000
 20
0.814479
 30
0.0
 10
2.456042
 20
0.797812
 30
0.0
 10
2.444792
 20
0.782500
 30
0.0
 10
2.431250
 20
0.768958
 30
0.0
  0
SPLINE
  5
167
100
AcDbEntity
  8
0
 62
7
100
AcDbSpline
 70
8
 71
3
 72
8
 73
4
 74
0
 40
0
 40
0
 40
0
 40
0
 40
1
 40
1
 40
1
 40
1
 10
2.431250
 20
0.768958
 30
0.0
 10
2.425417
 20
0.763125
 30
0.0
 10
2.421354
 20
0.755625
 30
0.0
 10
2.415417
 20
0.750000
 30
0.0
  0
SPLINE
  5
168
100
AcDbEntity
  8
0
 62
7
100
AcDbSpline
 70
8
 71
3
 72
8
 73
4
 74
0
 40
0
 40
0
 40
0
 40
0
 40
1
 40
1
 40
1
 40
1
 10
2.415417
 20
0.750000
 30
0.0
 10
2.405729
 20
0.740833
 30
0.0
 10
2.395729
 20
0.731875
 30
0.0
 10
2.384896
 20
0.724062
 30
0.0
  0
SPLINE
  5
169
100
AcDbEntity
  8
0
 62
7
100
AcDbSpline
 70
8
 71
3
 72
8
 73
4
 74
0
 40
0
 40
0
 40
0
 40
0
 40
1
 40
1
 40
1
 40
1
 10
2.384896
 20
0.724062
 30
0.0
 10
2.373646
 20
0.715937
 30
0.0
 10
2.362083
 20
0.707396
 30
0.0
 10
2.349271
 20
0.702708
 30
0.0
  0
SPLINE
  5
16a
100
AcDbEntity
  8
0
 62
7
100
AcDbSpline
 70
8
 71
3
 72
8
 73
4
 74
0
 40
0
 40
0
 40
0
 40
0
 40
1
 40
1
 40
1
 40
1
 10
2.349271
 20
0.702708
 30
0.0
 10
2.338854
 20
0.698958
 30
0.0
 10
2.330521
 20
0.691458
 30
0.0
 10
2.319792
 20
0.688958
 30
0.0
  0
SPLINE
  5
16b
100
AcDbEntity
  8
0
 62
7
100
AcDbSpline
 70
8
 71
3
 72
8
 73
4
 74
0
 40
0
 40
0
 40
0
 40
0
 40
1
 40
1
 40
1
 40
1
 10
2.319792
 20
0.688958
 30
0.0
 10
2.308854
 20
0.686354
 30
0.0
 10
2.297500
 20
0.685417
 30
0.0
 10
2.287083
 20
0.681667
 30
0.0
  0
SPLINE
  5
16c
100
AcDbEntity
  8
0
 62
7
100
AcDbSpline
 70
8
 71
3
 72
8
 73
4
 74
0
 40
0
 40
0
 40
0
 40
0
 40
1
 40
1
 40
1
 40
1
 10
2.287083
 20
0.681667
 30
0.0
 10
2.271562
 20
0.676250
 30
0.0
 10
2.255625
 20
0.675104
 30
0.0
 10
2.239479
 20
0.674375
 30
0.0
  0
SPLINE
  5
16d
100
AcDbEntity
  8
0
 62
7
100
AcDbSpline
 70
8
 71
3
 72
8
 73
4
 74
0
 40
0
 40
0
 40
0
 40
0
 40
1
 40
1
 40
1
 40
1
 10
2.239479
 20
0.674375
 30
0.0
 10
2.231667
 20
0.673958
 30
0.0
 10
2.223854
 20
0.674687
 30
0.0
 10
2.216042
 20
0.674583
 30
0.0
  0
SPLINE
  5
16e
100
AcDbEntity
  8
0
 62
7
100
AcDbSpline
 70
8
 71
3
 72
8
 73
4
 74
0
 40
0
 40
0
 40
0
 40
0
 40
1
 40
1
 40
1
 40
1
 10
2.216042
 20
0.674583
 30
0.0
 10
2.202396
 20
0.674375
 30
0.0
 10
2.188646
 20
0.672500
 30
0.0
 10
2.175104
 20
0.673854
 30
0.0
  0
SPLINE
  5
16f
100
AcDbEntity
  8
0
 62
7
100
AcDbSpline
 70
8
 71
3
 72
8
 73
4
 74
0
 40
0
 40
0
 40
0
 40
0
 40
1
 40
1
 40
1
 40
1
 10
2.175104
 20
0.673854
 30
0.0
 10
2.160833
 20
0.675312
 30
0.0
 10
2.146250
 20
0.673229
 30
0.0
 10
2.132187
 20
0.678021
 30
0.0
  0
SPLINE
  5
170
100
AcDbEntity
  8
0
 62
7
100
AcDbSpline
 70
8
 71
3
 72
8
 73
4
 74
0
 40
0
 40
0
 40
0
 40
0
 40
1
 40
1
 40
1
 40
1
 10
2.132187
 20
0.678021
 30
0.0
 10
2.127604
 20
0.679583
 30
0.0
 10
2.122292
 20
0.679375
 30
0.0
 10
2.117396
 20
0.680104
 30
0.0
  0
SPLINE
  5
171
100
AcDbEntity
  8
0
 62
7
100
AcDbSpline
 70
8
 71
3
 72
8
 73
4
 74
0
 40
0
 40
0
 40
0
 40
0
 40
1
 40
1
 40
1
 40
1
 10
2.117396
 20
0.680104
 30
0.0
 10
2.111354
 20
0.680521
 30
0.0
 10
2.105313
 20
0.681562
 30
0.0
 10
2.099687
 20
0.682500
 30
0.0
  0
LWPOLYLINE
  5
172
100
AcDbEntity
  8
0
 62
7
100
AcDbPolyline
 90
1
 70
1
 10
2.099687
 20
0.682500
 30
0.0
  0
SPLINE
  5
173
100
AcDbEntity
  8
0
 62
7
100
AcDbSpline
 70
8
 71
3
 72
8
 73
4
 74
0
 40
0
 40
0
 40
0
 40
0
 40
1
 40
1
 40
1
 40
1
 10
1.515937
 20
0.893750
 30
0.0
 10
1.585104
 20
0.893750
 30
0.0
 10
1.654271
 20
0.893750
 30
0.0
 10
1.723333
 20
0.894062
 30
0.0
  0
SPLINE
  5
174
100
AcDbEntity
  8
0
 62
7
100
AcDbSpline
 70
8
 71
3
 72
8
 73
4
 74
0
 40
0
 40
0
 40
0
 40
0
 40
1
 40
1
 40
1
 40
1
 10
1.723333
 20
0.894062
 30
0.0
 10
1.752083
 20
0.894167
 30
0.0
 10
1.780833
 20
0.894167
 30
0.0
 10
1.809479
 20
0.895417
 30
0.0
  0
SPLINE
  5
175
100
AcDbEntity
  8
0
 62
7
100
AcDbSpline
 70
8
 71
3
 72
8
 73
4
 74
0
 40
0
 40
0
 40
0
 40
0
 40
1
 40
1
 40
1
 40
1
 10
1.809479
 20
0.895417
 30
0.0
 10
1.828333
 20
0.896250
 30
0.0
 10
1.846354
 20
0.901458
 30
0.0
 10
1.861563
 20
0.913854
 30
0.0
  0
SPLINE
  5
176
100
AcDbEntity
  8
0
 62
7
100
AcDbSpline
 70
8
 71
3
 72
8
 73
4
 74
0
 40
0
 40
0
 40
0
 40
0
 40
1
 40
1
 40
1
 40
1
 10
1.861563
 20
0.913854
 30
0.0
 10
1.875104
 20
0.924896
 30
0.0
 10
1.889896
 20
0.934687
 30
0.0
 10
1.897187
 20
0.951458
 30
0.0
  0
SPLINE
  5
177
100
AcDbEntity
  8
0
 62
7
100
AcDbSpline
 70
8
 71
3
 72
8
 73
4
 74
0
 40
0
 40
0
 40
0
 40
0
 40
1
 40
1
 40
1
 40
1
 10
1.897187
 20
0.951458
 30
0.0
 10
1.902812
 20
0.964375
 30
0.0
 10
1.908438
 20
0.977292
 30
0.0
 10
1.909687
 20
0.991667
 30
0.0
  0
SPLINE
  5
178
100
AcDbEntity
  8
0
 62
7
100
AcDbSpline
 70
8
 71
3
 72
8
 73
4
 74
0
 40
0
 40
0
 40
0
 40
0
 40
1
 40
1
 40
1
 40
1
 10
1.909687
 20
0.991667
 30
0.0
 10
1.910208
 20
0.997813
 30
0.0
 10
1.911354
 20
1.004062
 30
0.0
 10
1.912812
 20
1.010104
 30
0.0
  0
SPLINE
  5
179
100
AcDbEntity
  8
0
 62
7
100
AcDbSpline
 70
8
 71
3
 72
8
 73
4
 74
0
 40
0
 40
0
 40
0
 40
0
 40
1
 40
1
 40
1
 40
1
 10
1.912812
 20
1.010104
 30
0.0
 10
1.927708
 20
1.074271
 30
0.0
 10
1.959062
 20
1.128958
 30
0.0
 10
2.006875
 20
1.174271
 30
0.0
  0
SPLINE
  5
17a
100
AcDbEntity
  8
0
 62
7
100
AcDbSpline
 70
8
 71
3
 72
8
 73
4
 74
0
 40
0
 40
0
 40
0
 40
0
 40
1
 40
1
 40
1
 40
1
 10
2.006875
 20
1.174271
 30
0.0
 10
2.026771
 20
1.193125
 30
0.0
 10
2.048542
 20
1.209375
 30
0.0
 10
2.072396
 20
1.223125
 30
0.0
  0
SPLINE
  5
17b
100
AcDbEntity
  8
0
 62
7
100
AcDbSpline
 70
8
 71
3
 72
8
 73
4
 74
0
 40
0
 40
0
 40
0
 40
0
 40
1
 40
1
 40
1
 40
1
 10
2.072396
 20
1.223125
 30
0.0
 10
2.101458
 20
1.239896
 30
0.0
 10
2.131875
 20
1.252292
 30
0.0
 10
2.164792
 20
1.258750
 30
0.0
  0
SPLINE
  5
17c
100
AcDbEntity
  8
0
 62
7
100
AcDbSpline
 70
8
 71
3
 72
8
 73
4
 74
0
 40
0
 40
0
 40
0
 40
0
 40
1
 40
1
 40
1
 40
1
 10
2.164792
 20
1.258750
 30
0.0
 10
2.184375
 20
1.262604
 30
0.0
 10
2.204167
 20
1.265000
 30
0.0
 10
2.222812
 20
1.273021
 30
0.0
  0
SPLINE
  5
17d
100
AcDbEntity
  8
0
 62
7
100
AcDbSpline
 70
8
 71
3
 72
8
 73
4
 74
0
 40
0
 40
0
 40
0
 40
0
 40
1
 40
1
 40
1
 40
1
 10
2.222812
 20
1.273021
 30
0.0
 10
2.267812
 20
1.292396
 30
0.0
 10
2.292083
 20
1.328646
 30
0.0
 10
2.292812
 20
1.378333
 30
0.0
  0
SPLINE
  5
17e
100
AcDbEntity
  8
0
 62
7
100
AcDbSpline
 70
8
 71
3
 72
8
 73
4
 74
0
 40
0
 40
0
 40
0
 40
0
 40
1
 40
1
 40
1
 40
1
 10
2.292812
 20
1.378333
 30
0.0
 10
2.293125
 20
1.397396
 30
0.0
 10
2.292917
 20
1.416458
 30
0.0
 10
2.293021
 20
1.435521
 30
0.0
  0
SPLINE
  5
17f
100
AcDbEntity
  8
0
 62
7
100
AcDbSpline
 70
8
 71
3
 72
8
 73
4
 74
0
 40
0
 40
0
 40
0
 40
0
 40
1
 40
1
 40
1
 40
1
 10
2.293021
 20
1.435521
 30
0.0
 10
2.293333
 20
1.469583
 30
0.0
 10
2.293854
 20
1.503646
 30
0.0
 10
2.294271
 20
1.537604
 30
0.0
  0
SPLINE
  5
180
100
AcDbEntity
  8
0
 62
7
100
AcDbSpline
 70
8
 71
3
 72
8
 73
4
 74
0
 40
0
 40
0
 40
0
 40
0
 40
1
 40
1
 40
1
 40
1
 10
2.294271
 20
1.537604
 30
0.0
 10
2.295000
 20
1.599167
 30
0.0
 10
2.295833
 20
1.660625
 30
0.0
 10
2.296458
 20
1.722187
 30
0.0
  0
SPLINE
  5
181
100
AcDbEntity
  8
0
 62
7
100
AcDbSpline
 70
8
 71
3
 72
8
 73
4
 74
0
 40
0
 40
0
 40
0
 40
0
 40
1
 40
1
 40
1
 40
1
 10
2.296458
 20
1.722187
 30
0.0
 10
2.296771
 20
1.759583
 30
0.0
 10
2.296667
 20
1.796979
 30
0.0
 10
2.296771
 20
1.834271
 30
0.0
  0
SPLINE
  5
182
100
AcDbEntity
  8
0
 62
7
100
AcDbSpline
 70
8
 71
3
 72
8
 73
4
 74
0
 40
0
 40
0
 40
0
 40
0
 40
1
 40
1
 40
1
 40
1
 10
2.296771
 20
1.834271
 30
0.0
 10
2.296875
 20
1.897500
 30
0.0
 10
2.297083
 20
1.960625
 30
0.0
 10
2.297187
 20
2.023854
 30
0.0
  0
SPLINE
  5
183
100
AcDbEntity
  8
0
 62
7
100
AcDbSpline
 70
8
 71
3
 72
8
 73
4
 74
0
 40
0
 40
0
 40
0
 40
0
 40
1
 40
1
 40
1
 40
1
 10
2.297187
 20
2.023854
 30
0.0
 10
2.297292
 20
2.056667
 30
0.0
 10
2.297292
 20
2.089479
 30
0.0
 10
2.297708
 20
2.122292
 30
0.0
  0
SPLINE
  5
184
100
AcDbEntity
  8
0
 62
7
100
AcDbSpline
 70
8
 71
3
 72
8
 73
4
 74
0
 40
0
 40
0
 40
0
 40
0
 40
1
 40
1
 40
1
 40
1
 10
2.297708
 20
2.122292
 30
0.0
 10
2.297917
 20
2.137188
 30
0.0
 10
2.299062
 20
2.152188
 30
0.0
 10
2.299167
 20
2.167083
 30
0.0
  0
SPLINE
  5
185
100
AcDbEntity
  8
0
 62
7
100
AcDbSpline
 70
8
 71
3
 72
8
 73
4
 74
0
 40
0
 40
0
 40
0
 40
0
 40
1
 40
1
 40
1
 40
1
 10
2.299167
 20
2.167083
 30
0.0
 10
2.299271
 20
2.181146
 30
0.0
 10
2.298229
 20
2.195104
 30
0.0
 10
2.297917
 20
2.209167
 30
0.0
  0
SPLINE
  5
186
100
AcDbEntity
  8
0
 62
7
100
AcDbSpline
 70
8
 71
3
 72
8
 73
4
 74
0
 40
0
 40
0
 40
0
 40
0
 40
1
 40
1
 40
1
 40
1
 10
2.297917
 20
2.209167
 30
0.0
 10
2.297604
 20
2.223229
 30
0.0
 10
2.297500
 20
2.237396
 30
0.0
 10
2.297500
 20
2.251458
 30
0.0
  0
SPLINE
  5
187
100
AcDbEntity
  8
0
 62
7
100
AcDbSpline
 70
8
 71
3
 72
8
 73
4
 74
0
 40
0
 40
0
 40
0
 40
0
 40
1
 40
1
 40
1
 40
1
 10
2.297500
 20
2.251458
 30
0.0
 10
2.297500
 20
2.265104
 30
0.0
 10
2.293750
 20
2.278125
 30
0.0
 10
2.288021
 20
2.289792
 30
0.0
  0
SPLINE
  5
188
100
AcDbEntity
  8
0
 62
7
100
AcDbSpline
 70
8
 71
3
 72
8
 73
4
 74
0
 40
0
 40
0
 40
0
 40
0
 40
1
 40
1
 40
1
 40
1
 10
2.288021
 20
2.289792
 30
0.0
 10
2.277083
 20
2.312188
 30
0.0
 10
2.259792
 20
2.329687
 30
0.0
 10
2.238437
 20
2.342708
 30
0.0
  0
SPLINE
  5
189
100
AcDbEntity
  8
0
 62
7
100
AcDbSpline
 70
8
 71
3
 72
8
 73
4
 74
0
 40
0
 40
0
 40
0
 40
0
 40
1
 40
1
 40
1
 40
1
 10
2.238437
 20
2.342708
 30
0.0
 10
2.228542
 20
2.348750
 30
0.0
 10
2.218125
 20
2.353542
 30
0.0
 10
2.206458
 20
2.355833
 30
0.0
  0
SPLINE
  5
18a
100
AcDbEntity
  8
0
 62
7
100
AcDbSpline
 70
8
 71
3
 72
8
 73
4
 74
0
 40
0
 40
0
 40
0
 40
0
 40
1
 40
1
 40
1
 40
1
 10
2.206458
 20
2.355833
 30
0.0
 10
2.191042
 20
2.358854
 30
0.0
 10
2.175833
 20
2.362500
 30
0.0
 10
2.160729
 20
2.366875
 30
0.0
  0
SPLINE
  5
18b
100
AcDbEntity
  8
0
 62
7
100
AcDbSpline
 70
8
 71
3
 72
8
 73
4
 74
0
 40
0
 40
0
 40
0
 40
0
 40
1
 40
1
 40
1
 40
1
 10
2.160729
 20
2.366875
 30
0.0
 10
2.144479
 20
2.371563
 30
0.0
 10
2.128333
 20
2.376563
 30
0.0
 10
2.112604
 20
2.382708
 30
0.0
  0
SPLINE
  5
18c
100
AcDbEntity
  8
0
 62
7
100
AcDbSpline
 70
8
 71
3
 72
8
 73
4
 74
0
 40
0
 40
0
 40
0
 40
0
 40
1
 40
1
 40
1
 40
1
 10
2.112604
 20
2.382708
 30
0.0
 10
2.101979
 20
2.386875
 30
0.0
 10
2.092188
 20
2.393229
 30
0.0
 10
2.082083
 20
2.398646
 30
0.0
  0
SPLINE
  5
18d
100
AcDbEntity
  8
0
 62
7
100
AcDbSpline
 70
8
 71
3
 72
8
 73
4
 74
0
 40
0
 40
0
 40
0
 40
0
 40
1
 40
1
 40
1
 40
1
 10
2.082083
 20
2.398646
 30
0.0
 10
2.073333
 20
2.403333
 30
0.0
 10
2.064063
 20
2.407292
 30
0.0
 10
2.056146
 20
2.413125
 30
0.0
  0
SPLINE
  5
18e
100
AcDbEntity
  8
0
 62
7
100
AcDbSpline
 70
8
 71
3
 72
8
 73
4
 74
0
 40
0
 40
0
 40
0
 40
0
 40
1
 40
1
 40
1
 40
1
 10
2.056146
 20
2.413125
 30
0.0
 10
2.033646
 20
2.429479
 30
0.0
 10
2.013854
 20
2.448646
 30
0.0
 10
1.995521
 20
2.469896
 30
0.0
  0
SPLINE
  5
18f
100
AcDbEntity
  8
0
 62
7
100
AcDbSpline
 70
8
 71
3
 72
8
 73
4
 74
0
 40
0
 40
0
 40
0
 40
0
 40
1
 40
1
 40
1
 40
1
 10
1.995521
 20
2.469896
 30
0.0
 10
1.976042
 20
2.492500
 30
0.0
 10
1.961458
 20
2.517812
 30
0.0
 10
1.948333
 20
2.544062
 30
0.0
  0
SPLINE
  5
190
100
AcDbEntity
  8
0
 62
7
100
AcDbSpline
 70
8
 71
3
 72
8
 73
4
 74
0
 40
0
 40
0
 40
0
 40
0
 40
1
 40
1
 40
1
 40
1
 10
1.948333
 20
2.544062
 30
0.0
 10
1.932708
 20
2.575417
 30
0.0
 10
1.923854
 20
2.609063
 30
0.0
 10
1.918646
 20
2.643750
 30
0.0
  0
SPLINE
  5
191
100
AcDbEntity
  8
0
 62
7
100
AcDbSpline
 70
8
 71
3
 72
8
 73
4
 74
0
 40
0
 40
0
 40
0
 40
0
 40
1
 40
1
 40
1
 40
1
 10
1.918646
 20
2.643750
 30
0.0
 10
1.915938
 20
2.661563
 30
0.0
 10
1.910833
 20
2.678750
 30
0.0
 10
1.898438
 20
2.692396
 30
0.0
  0
SPLINE
  5
192
100
AcDbEntity
  8
0
 62
7
100
AcDbSpline
 70
8
 71
3
 72
8
 73
4
 74
0
 40
0
 40
0
 40
0
 40
0
 40
1
 40
1
 40
1
 40
1
 10
1.898438
 20
2.692396
 30
0.0
 10
1.889688
 20
2.702083
 30
0.0
 10
1.881250
 20
2.712188
 30
0.0
 10
1.870313
 20
2.720000
 30
0.0
  0
SPLINE
  5
193
100
AcDbEntity
  8
0
 62
7
100
AcDbSpline
 70
8
 71
3
 72
8
 73
4
 74
0
 40
0
 40
0
 40
0
 40
0
 40
1
 40
1
 40
1
 40
1
 10
1.870313
 20
2.720000
 30
0.0
 10
1.859688
 20
2.727604
 30
0.0
 10
1.849063
 20
2.734792
 30
0.0
 10
1.836146
 20
2.737083
 30
0.0
  0
SPLINE
  5
194
100
AcDbEntity
  8
0
 62
7
100
AcDbSpline
 70
8
 71
3
 72
8
 73
4
 74
0
 40
0
 40
0
 40
0
 40
0
 40
1
 40
1
 40
1
 40
1
 10
1.836146
 20
2.737083
 30
0.0
 10
1.823125
 20
2.739375
 30
0.0
 10
1.809896
 20
2.741979
 30
0.0
 10
1.796771
 20
2.742396
 30
0.0
  0
SPLINE
  5
195
100
AcDbEntity
  8
0
 62
7
100
AcDbSpline
 70
8
 71
3
 72
8
 73
4
 74
0
 40
0
 40
0
 40
0
 40
0
 40
1
 40
1
 40
1
 40
1
 10
1.796771
 20
2.742396
 30
0.0
 10
1.761250
 20
2.743646
 30
0.0
 10
1.725625
 20
2.744063
 30
0.0
 10
1.690000
 20
2.744271
 30
0.0
  0
SPLINE
  5
196
100
AcDbEntity
  8
0
 62
7
100
AcDbSpline
 70
8
 71
3
 72
8
 73
4
 74
0
 40
0
 40
0
 40
0
 40
0
 40
1
 40
1
 40
1
 40
1
 10
1.690000
 20
2.744271
 30
0.0
 10
1.663021
 20
2.744375
 30
0.0
 10
1.635938
 20
2.743229
 30
0.0
 10
1.608958
 20
2.743542
 30
0.0
  0
SPLINE
  5
197
100
AcDbEntity
  8
0
 62
7
100
AcDbSpline
 70
8
 71
3
 72
8
 73
4
 74
0
 40
0
 40
0
 40
0
 40
0
 40
1
 40
1
 40
1
 40
1
 10
1.608958
 20
2.743542
 30
0.0
 10
1.563333
 20
2.744063
 30
0.0
 10
1.517708
 20
2.745312
 30
0.0
 10
1.472188
 20
2.746146
 30
0.0
  0
SPLINE
  5
198
100
AcDbEntity
  8
0
 62
7
100
AcDbSpline
 70
8
 71
3
 72
8
 73
4
 74
0
 40
0
 40
0
 40
0
 40
0
 40
1
 40
1
 40
1
 40
1
 10
1.472188
 20
2.746146
 30
0.0
 10
1.441458
 20
2.746667
 30
0.0
 10
1.410833
 20
2.746771
 30
0.0
 10
1.380104
 20
2.747187
 30
0.0
  0
SPLINE
  5
199
100
AcDbEntity
  8
0
 62
7
100
AcDbSpline
 70
8
 71
3
 72
8
 73
4
 74
0
 40
0
 40
0
 40
0
 40
0
 40
1
 40
1
 40
1
 40
1
 10
1.380104
 20
2.747187
 30
0.0
 10
1.377188
 20
2.747187
 30
0.0
 10
1.374375
 20
2.748229
 30
0.0
 10
1.371458
 20
2.748333
 30
0.0
  0
SPLINE
  5
19a
100
AcDbEntity
  8
0
 62
7
100
AcDbSpline
 70
8
 71
3
 72
8
 73
4
 74
0
 40
0
 40
0
 40
0
 40
0
 40
1
 40
1
 40
1
 40
1
 10
1.371458
 20
2.748333
 30
0.0
 10
1.363333
 20
2.748750
 30
0.0
 10
1.355104
 20
2.749375
 30
0.0
 10
1.346979
 20
2.749167
 30
0.0
  0
SPLINE
  5
19b
100
AcDbEntity
  8
0
 62
7
100
AcDbSpline
 70
8
 71
3
 72
8
 73
4
 74
0
 40
0
 40
0
 40
0
 40
0
 40
1
 40
1
 40
1
 40
1
 10
1.346979
 20
2.749167
 30
0.0
 10
1.337917
 20
2.748958
 30
0.0
 10
1.328854
 20
2.747292
 30
0.0
 10
1.319792
 20
2.747292
 30
0.0
  0
SPLINE
  5
19c
100
AcDbEntity
  8
0
 62
7
100
AcDbSpline
 70
8
 71
3
 72
8
 73
4
 74
0
 40
0
 40
0
 40
0
 40
0
 40
1
 40
1
 40
1
 40
1
 10
1.319792
 20
2.747292
 30
0.0
 10
1.298958
 20
2.747187
 30
0.0
 10
1.278125
 20
2.747813
 30
0.0
 10
1.257292
 20
2.747917
 30
0.0
  0
SPLINE
  5
19d
100
AcDbEntity
  8
0
 62
7
100
AcDbSpline
 70
8
 71
3
 72
8
 73
4
 74
0
 40
0
 40
0
 40
0
 40
0
 40
1
 40
1
 40
1
 40
1
 10
1.257292
 20
2.747917
 30
0.0
 10
1.214792
 20
2.748229
 30
0.0
 10
1.172396
 20
2.748438
 30
0.0
 10
1.129896
 20
2.748750
 30
0.0
  0
SPLINE
  5
19e
100
AcDbEntity
  8
0
 62
7
100
AcDbSpline
 70
8
 71
3
 72
8
 73
4
 74
0
 40
0
 40
0
 40
0
 40
0
 40
1
 40
1
 40
1
 40
1
 10
1.129896
 20
2.748750
 30
0.0
 10
1.108438
 20
2.748854
 30
0.0
 10
1.086875
 20
2.749062
 30
0.0
 10
1.065417
 20
2.749062
 30
0.0
  0
SPLINE
  5
19f
100
AcDbEntity
  8
0
 62
7
100
AcDbSpline
 70
8
 71
3
 72
8
 73
4
 74
0
 40
0
 40
0
 40
0
 40
0
 40
1
 40
1
 40
1
 40
1
 10
1.065417
 20
2.749062
 30
0.0
 10
1.038438
 20
2.749167
 30
0.0
 10
1.011563
 20
2.749167
 30
0.0
 10
0.984583
 20
2.749167
 30
0.0
  0
SPLINE
  5
1a0
100
AcDbEntity
  8
0
 62
7
100
AcDbSpline
 70
8
 71
3
 72
8
 73
4
 74
0
 40
0
 40
0
 40
0
 40
0
 40
1
 40
1
 40
1
 40
1
 10
0.984583
 20
2.749167
 30
0.0
 10
0.966458
 20
2.749167
 30
0.0
 10
0.948750
 20
2.749583
 30
0.0
 10
0.930833
 20
2.743542
 30
0.0
  0
SPLINE
  5
1a1
100
AcDbEntity
  8
0
 62
7
100
AcDbSpline
 70
8
 71
3
 72
8
 73
4
 74
0
 40
0
 40
0
 40
0
 40
0
 40
1
 40
1
 40
1
 40
1
 10
0.930833
 20
2.743542
 30
0.0
 10
0.907604
 20
2.735625
 30
0.0
 10
0.890000
 20
2.720937
 30
0.0
 10
0.875833
 20
2.702500
 30
0.0
  0
SPLINE
  5
1a2
100
AcDbEntity
  8
0
 62
7
100
AcDbSpline
 70
8
 71
3
 72
8
 73
4
 74
0
 40
0
 40
0
 40
0
 40
0
 40
1
 40
1
 40
1
 40
1
 10
0.875833
 20
2.702500
 30
0.0
 10
0.864167
 20
2.687396
 30
0.0
 10
0.857292
 20
2.669271
 30
0.0
 10
0.854479
 20
2.650000
 30
0.0
  0
SPLINE
  5
1a3
100
AcDbEntity
  8
0
 62
7
100
AcDbSpline
 70
8
 71
3
 72
8
 73
4
 74
0
 40
0
 40
0
 40
0
 40
0
 40
1
 40
1
 40
1
 40
1
 10
0.854479
 20
2.650000
 30
0.0
 10
0.849896
 20
2.618229
 30
0.0
 10
0.841667
 20
2.587292
 30
0.0
 10
0.826979
 20
2.558646
 30
0.0
  0
SPLINE
  5
1a4
100
AcDbEntity
  8
0
 62
7
100
AcDbSpline
 70
8
 71
3
 72
8
 73
4
 74
0
 40
0
 40
0
 40
0
 40
0
 40
1
 40
1
 40
1
 40
1
 10
0.826979
 20
2.558646
 30
0.0
 10
0.819688
 20
2.544271
 30
0.0
 10
0.810104
 20
2.531146
 30
0.0
 10
0.801979
 20
2.517188
 30
0.0
  0
SPLINE
  5
1a5
100
AcDbEntity
  8
0
 62
7
100
AcDbSpline
 70
8
 71
3
 72
8
 73
4
 74
0
 40
0
 40
0
 40
0
 40
0
 40
1
 40
1
 40
1
 40
1
 10
0.801979
 20
2.517188
 30
0.0
 10
0.783750
 20
2.485938
 30
0.0
 10
0.759167
 20
2.460729
 30
0.0
 10
0.730833
 20
2.438333
 30
0.0
  0
SPLINE
  5
1a6
100
AcDbEntity
  8
0
 62
7
100
AcDbSpline
 70
8
 71
3
 72
8
 73
4
 74
0
 40
0
 40
0
 40
0
 40
0
 40
1
 40
1
 40
1
 40
1
 10
0.730833
 20
2.438333
 30
0.0
 10
0.709583
 20
2.421458
 30
0.0
 10
0.686875
 20
2.407708
 30
0.0
 10
0.661979
 20
2.397396
 30
0.0
  0
SPLINE
  5
1a7
100
AcDbEntity
  8
0
 62
7
100
AcDbSpline
 70
8
 71
3
 72
8
 73
4
 74
0
 40
0
 40
0
 40
0
 40
0
 40
1
 40
1
 40
1
 40
1
 10
0.661979
 20
2.397396
 30
0.0
 10
0.653542
 20
2.393958
 30
0.0
 10
0.645208
 20
2.390208
 30
0.0
 10
0.636667
 20
2.387396
 30
0.0
  0
SPLINE
  5
1a8
100
AcDbEntity
  8
0
 62
7
100
AcDbSpline
 70
8
 71
3
 72
8
 73
4
 74
0
 40
0
 40
0
 40
0
 40
0
 40
1
 40
1
 40
1
 40
1
 10
0.636667
 20
2.387396
 30
0.0
 10
0.620208
 20
2.381979
 30
0.0
 10
0.603958
 20
2.375938
 30
0.0
 10
0.586250
 20
2.374896
 30
0.0
  0
SPLINE
  5
1a9
100
AcDbEntity
  8
0
 62
7
100
AcDbSpline
 70
8
 71
3
 72
8
 73
4
 74
0
 40
0
 40
0
 40
0
 40
0
 40
1
 40
1
 40
1
 40
1
 10
0.586250
 20
2.374896
 30
0.0
 10
0.576771
 20
2.374375
 30
0.0
 10
0.567292
 20
2.372292
 30
0.0
 10
0.558125
 20
2.369792
 30
0.0
  0
SPLINE
  5
1aa
100
AcDbEntity
  8
0
 62
7
100
AcDbSpline
 70
8
 71
3
 72
8
 73
4
 74
0
 40
0
 40
0
 40
0
 40
0
 40
1
 40
1
 40
1
 40
1
 10
0.558125
 20
2.369792
 30
0.0
 10
0.528854
 20
2.361771
 30
0.0
 10
0.506563
 20
2.343750
 30
0.0
 10
0.489688
 20
2.319063
 30
0.0
  0
SPLINE
  5
1ab
100
AcDbEntity
  8
0
 62
7
100
AcDbSpline
 70
8
 71
3
 72
8
 73
4
 74
0
 40
0
 40
0
 40
0
 40
0
 40
1
 40
1
 40
1
 40
1
 10
0.489688
 20
2.319063
 30
0.0
 10
0.477188
 20
2.300729
 30
0.0
 10
0.471771
 20
2.279896
 30
0.0
 10
0.471354
 20
2.257917
 30
0.0
  0
SPLINE
  5
1ac
100
AcDbEntity
  8
0
 62
7
100
AcDbSpline
 70
8
 71
3
 72
8
 73
4
 74
0
 40
0
 40
0
 40
0
 40
0
 40
1
 40
1
 40
1
 40
1
 10
0.471354
 20
2.257917
 30
0.0
 10
0.470938
 20
2.236875
 30
0.0
 10
0.471979
 20
2.215729
 30
0.0
 10
0.471771
 20
2.194688
 30
0.0
  0
SPLINE
  5
1ad
100
AcDbEntity
  8
0
 62
7
100
AcDbSpline
 70
8
 71
3
 72
8
 73
4
 74
0
 40
0
 40
0
 40
0
 40
0
 40
1
 40
1
 40
1
 40
1
 10
0.471771
 20
2.194688
 30
0.0
 10
0.471354
 20
2.144792
 30
0.0
 10
0.470521
 20
2.094896
 30
0.0
 10
0.470104
 20
2.045000
 30
0.0
  0
SPLINE
  5
1ae
100
AcDbEntity
  8
0
 62
7
100
AcDbSpline
 70
8
 71
3
 72
8
 73
4
 74
0
 40
0
 40
0
 40
0
 40
0
 40
1
 40
1
 40
1
 40
1
 10
0.470104
 20
2.045000
 30
0.0
 10
0.469792
 20
2.013750
 30
0.0
 10
0.470104
 20
1.982604
 30
0.0
 10
0.469896
 20
1.951354
 30
0.0
  0
SPLINE
  5
1af
100
AcDbEntity
  8
0
 62
7
100
AcDbSpline
 70
8
 71
3
 72
8
 73
4
 74
0
 40
0
 40
0
 40
0
 40
0
 40
1
 40
1
 40
1
 40
1
 10
0.469896
 20
1.951354
 30
0.0
 10
0.469688
 20
1.920208
 30
0.0
 10
0.468854
 20
1.889063
 30
0.0
 10
0.468542
 20
1.857917
 30
0.0
  0
SPLINE
  5
1b0
100
AcDbEntity
  8
0
 62
7
100
AcDbSpline
 70
8
 71
3
 72
8
 73
4
 74
0
 40
0
 40
0
 40
0
 40
0
 40
1
 40
1
 40
1
 40
1
 10
0.468542
 20
1.857917
 30
0.0
 10
0.468333
 20
1.835521
 30
0.0
 10
0.468542
 20
1.813021
 30
0.0
 10
0.468438
 20
1.790625
 30
0.0
  0
LWPOLYLINE
  5
1b1
100
AcDbEntity
  8
0
 62
7
100
AcDbPolyline
 90
3
 70
0
 10
1.379792
 20
0.896042
 30
0.0
 10
1.379792
 20
0.893750
 30
0.0
 10
1.515937
 20
0.893750
 30
0.0
  0
SPLINE
  5
1b2
100
AcDbEntity
  8
0
 62
7
100
AcDbSpline
 70
8
 71
3
 72
8
 73
4
 74
0
 40
0
 40
0
 40
0
 40
0
 40
1
 40
1
 40
1
 40
1
 10
0.467500
 20
1.612187
 30
0.0
 10
0.467292
 20
1.573125
 30
0.0
 10
0.467396
 20
1.534167
 30
0.0
 10
0.467083
 20
1.495104
 30
0.0
  0
SPLINE
  5
1b3
100
AcDbEntity
  8
0
 62
7
100
AcDbSpline
 70
8
 71
3
 72
8
 73
4
 74
0
 40
0
 40
0
 40
0
 40
0
 40
1
 40
1
 40
1
 40
1
 10
0.467083
 20
1.495104
 30
0.0
 10
0.466875
 20
1.462187
 30
0.0
 10
0.465833
 20
1.429375
 30
0.0
 10
0.465938
 20
1.396458
 30
0.0
  0
SPLINE
  5
1b4
100
AcDbEntity
  8
0
 62
7
100
AcDbSpline
 70
8
 71
3
 72
8
 73
4
 74
0
 40
0
 40
0
 40
0
 40
0
 40
1
 40
1
 40
1
 40
1
 10
0.465938
 20
1.396458
 30
0.0
 10
0.466042
 20
1.361979
 30
0.0
 10
0.478750
 20
1.332292
 30
0.0
 10
0.504063
 20
1.309063
 30
0.0
  0
SPLINE
  5
1b5
100
AcDbEntity
  8
0
 62
7
100
AcDbSpline
 70
8
 71
3
 72
8
 73
4
 74
0
 40
0
 40
0
 40
0
 40
0
 40
1
 40
1
 40
1
 40
1
 10
0.504063
 20
1.309063
 30
0.0
 10
0.522083
 20
1.292500
 30
0.0
 10
0.543958
 20
1.282604
 30
0.0
 10
0.568438
 20
1.278437
 30
0.0
  0
SPLINE
  5
1b6
100
AcDbEntity
  8
0
 62
7
100
AcDbSpline
 70
8
 71
3
 72
8
 73
4
 74
0
 40
0
 40
0
 40
0
 40
0
 40
1
 40
1
 40
1
 40
1
 10
0.568438
 20
1.278437
 30
0.0
 10
0.602500
 20
1.272708
 30
0.0
 10
0.636354
 20
1.265521
 30
0.0
 10
0.666667
 20
1.247708
 30
0.0
  0
SPLINE
  5
1b7
100
AcDbEntity
  8
0
 62
7
100
AcDbSpline
 70
8
 71
3
 72
8
 73
4
 74
0
 40
0
 40
0
 40
0
 40
0
 40
1
 40
1
 40
1
 40
1
 10
0.666667
 20
1.247708
 30
0.0
 10
0.684479
 20
1.237292
 30
0.0
 10
0.701979
 20
1.226250
 30
0.0
 10
0.718854
 20
1.214479
 30
0.0
  0
SPLINE
  5
1b8
100
AcDbEntity
  8
0
 62
7
100
AcDbSpline
 70
8
 71
3
 72
8
 73
4
 74
0
 40
0
 40
0
 40
0
 40
0
 40
1
 40
1
 40
1
 40
1
 10
0.718854
 20
1.214479
 30
0.0
 10
0.731250
 20
1.205833
 30
0.0
 10
0.740938
 20
1.193958
 30
0.0
 10
0.752500
 20
1.184167
 30
0.0
  0
SPLINE
  5
1b9
100
AcDbEntity
  8
0
 62
7
100
AcDbSpline
 70
8
 71
3
 72
8
 73
4
 74
0
 40
0
 40
0
 40
0
 40
0
 40
1
 40
1
 40
1
 40
1
 10
0.752500
 20
1.184167
 30
0.0
 10
0.762500
 20
1.175833
 30
0.0
 10
0.769896
 20
1.164271
 30
0.0
 10
0.777708
 20
1.153542
 30
0.0
  0
SPLINE
  5
1ba
100
AcDbEntity
  8
0
 62
7
100
AcDbSpline
 70
8
 71
3
 72
8
 73
4
 74
0
 40
0
 40
0
 40
0
 40
0
 40
1
 40
1
 40
1
 40
1
 10
0.777708
 20
1.153542
 30
0.0
 10
0.785417
 20
1.142917
 30
0.0
 10
0.794688
 20
1.133542
 30
0.0
 10
0.799792
 20
1.120833
 30
0.0
  0
SPLINE
  5
1bb
100
AcDbEntity
  8
0
 62
7
100
AcDbSpline
 70
8
 71
3
 72
8
 73
4
 74
0
 40
0
 40
0
 40
0
 40
0
 40
1
 40
1
 40
1
 40
1
 10
0.799792
 20
1.120833
 30
0.0
 10
0.803854
 20
1.110625
 30
0.0
 10
0.811042
 20
1.101667
 30
0.0
 10
0.816146
 20
1.091771
 30
0.0
  0
SPLINE
  5
1bc
100
AcDbEntity
  8
0
 62
7
100
AcDbSpline
 70
8
 71
3
 72
8
 73
4
 74
0
 40
0
 40
0
 40
0
 40
0
 40
1
 40
1
 40
1
 40
1
 10
0.816146
 20
1.091771
 30
0.0
 10
0.818750
 20
1.086771
 30
0.0
 10
0.818646
 20
1.080313
 30
0.0
 10
0.821563
 20
1.075521
 30
0.0
  0
SPLINE
  5
1bd
100
AcDbEntity
  8
0
 62
7
100
AcDbSpline
 70
8
 71
3
 72
8
 73
4
 74
0
 40
0
 40
0
 40
0
 40
0
 40
1
 40
1
 40
1
 40
1
 10
0.821563
 20
1.075521
 30
0.0
 10
0.832500
 20
1.057813
 30
0.0
 10
0.835833
 20
1.037813
 30
0.0
 10
0.839688
 20
1.018021
 30
0.0
  0
SPLINE
  5
1be
100
AcDbEntity
  8
0
 62
7
100
AcDbSpline
 70
8
 71
3
 72
8
 73
4
 74
0
 40
0
 40
0
 40
0
 40
0
 40
1
 40
1
 40
1
 40
1
 10
0.839688
 20
1.018021
 30
0.0
 10
0.842917
 20
1.001250
 30
0.0
 10
0.845625
 20
0.984583
 30
0.0
 10
0.852292
 20
0.968750
 30
0.0
  0
SPLINE
  5
1bf
100
AcDbEntity
  8
0
 62
7
100
AcDbSpline
 70
8
 71
3
 72
8
 73
4
 74
0
 40
0
 40
0
 40
0
 40
0
 40
1
 40
1
 40
1
 40
1
 10
0.852292
 20
0.968750
 30
0.0
 10
0.859688
 20
0.951042
 30
0.0
 10
0.870625
 20
0.935313
 30
0.0
 10
0.885313
 20
0.924063
 30
0.0
  0
SPLINE
  5
1c0
100
AcDbEntity
  8
0
 62
7
100
AcDbSpline
 70
8
 71
3
 72
8
 73
4
 74
0
 40
0
 40
0
 40
0
 40
0
 40
1
 40
1
 40
1
 40
1
 10
0.885313
 20
0.924063
 30
0.0
 10
0.906042
 20
0.908333
 30
0.0
 10
0.930521
 20
0.899167
 30
0.0
 10
0.957188
 20
0.898750
 30
0.0
  0
SPLINE
  5
1c1
100
AcDbEntity
  8
0
 62
7
100
AcDbSpline
 70
8
 71
3
 72
8
 73
4
 74
0
 40
0
 40
0
 40
0
 40
0
 40
1
 40
1
 40
1
 40
1
 10
0.957188
 20
0.898750
 30
0.0
 10
1.027188
 20
0.897604
 30
0.0
 10
1.097083
 20
0.896458
 30
0.0
 10
1.167083
 20
0.896042
 30
0.0
  0
SPLINE
  5
1c2
100
AcDbEntity
  8
0
 62
7
100
AcDbSpline
 70
8
 71
3
 72
8
 73
4
 74
0
 40
0
 40
0
 40
0
 40
0
 40
1
 40
1
 40
1
 40
1
 10
1.167083
 20
0.896042
 30
0.0
 10
1.238229
 20
0.895625
 30
0.0
 10
1.308958
 20
0.896042
 30
0.0
 10
1.379792
 20
0.896042
 30
0.0
  0
LWPOLYLINE
  5
1c3
100
AcDbEntity
  8
0
 62
7
100
AcDbPolyline
 90
2
 70
0
 10
0.468438
 20
1.790625
 30
0.0
 10
0.467500
 20
1.612187
 30
0.0
  0
SPLINE
  5
1c4
100
AcDbEntity
  8
0
 62
7
100
AcDbSpline
 70
8
 71
3
 72
8
 73
4
 74
0
 40
0
 40
0
 40
0
 40
0
 40
1
 40
1
 40
1
 40
1
 10
0.644792
 20
0.960104
 30
0.0
 10
0.646771
 20
0.984375
 30
0.0
 10
0.635417
 20
1.005521
 30
0.0
 10
0.622292
 20
1.025937
 30
0.0
  0
SPLINE
  5
1c5
100
AcDbEntity
  8
0
 62
7
100
AcDbSpline
 70
8
 71
3
 72
8
 73
4
 74
0
 40
0
 40
0
 40
0
 40
0
 40
1
 40
1
 40
1
 40
1
 10
0.622292
 20
1.025937
 30
0.0
 10
0.616771
 20
1.034583
 30
0.0
 10
0.611146
 20
1.044375
 30
0.0
 10
0.602917
 20
1.049896
 30
0.0
  0
SPLINE
  5
1c6
100
AcDbEntity
  8
0
 62
7
100
AcDbSpline
 70
8
 71
3
 72
8
 73
4
 74
0
 40
0
 40
0
 40
0
 40
0
 40
1
 40
1
 40
1
 40
1
 10
0.602917
 20
1.049896
 30
0.0
 10
0.588437
 20
1.059583
 30
0.0
 10
0.573646
 20
1.069583
 30
0.0
 10
0.555937
 20
1.073854
 30
0.0
  0
SPLINE
  5
1c7
100
AcDbEntity
  8
0
 62
7
100
AcDbSpline
 70
8
 71
3
 72
8
 73
4
 74
0
 40
0
 40
0
 40
0
 40
0
 40
1
 40
1
 40
1
 40
1
 10
0.555937
 20
1.073854
 30
0.0
 10
0.533021
 20
1.079375
 30
0.0
 10
0.509896
 20
1.082187
 30
0.0
 10
0.487187
 20
1.076146
 30
0.0
  0
SPLINE
  5
1c8
100
AcDbEntity
  8
0
 62
7
100
AcDbSpline
 70
8
 71
3
 72
8
 73
4
 74
0
 40
0
 40
0
 40
0
 40
0
 40
1
 40
1
 40
1
 40
1
 10
0.487187
 20
1.076146
 30
0.0
 10
0.455208
 20
1.067500
 30
0.0
 10
0.429688
 20
1.048958
 30
0.0
 10
0.413333
 20
1.019479
 30
0.0
  0
SPLINE
  5
1c9
100
AcDbEntity
  8
0
 62
7
100
AcDbSpline
 70
8
 71
3
 72
8
 73
4
 74
0
 40
0
 40
0
 40
0
 40
0
 40
1
 40
1
 40
1
 40
1
 10
0.413333
 20
1.019479
 30
0.0
 10
0.404792
 20
1.004167
 30
0.0
 10
0.397292
 20
0.988125
 30
0.0
 10
0.396042
 20
0.970417
 30
0.0
  0
SPLINE
  5
1ca
100
AcDbEntity
  8
0
 62
7
100
AcDbSpline
 70
8
 71
3
 72
8
 73
4
 74
0
 40
0
 40
0
 40
0
 40
0
 40
1
 40
1
 40
1
 40
1
 10
0.396042
 20
0.970417
 30
0.0
 10
0.393854
 20
0.938958
 30
0.0
 10
0.402396
 20
0.910312
 30
0.0
 10
0.422396
 20
0.885625
 30
0.0
  0
SPLINE
  5
1cb
100
AcDbEntity
  8
0
 62
7
100
AcDbSpline
 70
8
 71
3
 72
8
 73
4
 74
0
 40
0
 40
0
 40
0
 40
0
 40
1
 40
1
 40
1
 40
1
 10
0.422396
 20
0.885625
 30
0.0
 10
0.434792
 20
0.870312
 30
0.0
 10
0.448646
 20
0.856458
 30
0.0
 10
0.466771
 20
0.848333
 30
0.0
  0
SPLINE
  5
1cc
100
AcDbEntity
  8
0
 62
7
100
AcDbSpline
 70
8
 71
3
 72
8
 73
4
 74
0
 40
0
 40
0
 40
0
 40
0
 40
1
 40
1
 40
1
 40
1
 10
0.466771
 20
0.848333
 30
0.0
 10
0.490000
 20
0.837917
 30
0.0
 10
0.514271
 20
0.833854
 30
0.0
 10
0.539792
 20
0.837917
 30
0.0
  0
SPLINE
  5
1cd
100
AcDbEntity
  8
0
 62
7
100
AcDbSpline
 70
8
 71
3
 72
8
 73
4
 74
0
 40
0
 40
0
 40
0
 40
0
 40
1
 40
1
 40
1
 40
1
 10
0.539792
 20
0.837917
 30
0.0
 10
0.563854
 20
0.841667
 30
0.0
 10
0.586042
 20
0.850000
 30
0.0
 10
0.603750
 20
0.866354
 30
0.0
  0
SPLINE
  5
1ce
100
AcDbEntity
  8
0
 62
7
100
AcDbSpline
 70
8
 71
3
 72
8
 73
4
 74
0
 40
0
 40
0
 40
0
 40
0
 40
1
 40
1
 40
1
 40
1
 10
0.603750
 20
0.866354
 30
0.0
 10
0.630625
 20
0.890833
 30
0.0
 10
0.645937
 20
0.921458
 30
0.0
 10
0.644792
 20
0.960104
 30
0.0
  0
LWPOLYLINE
  5
1cf
100
AcDbEntity
  8
0
 62
7
100
AcDbPolyline
 90
1
 70
1
 10
1.379792
 20
0.896042
 30
0.0
  0
SPLINE
  5
1d0
100
AcDbEntity
  8
0
 62
7
100
AcDbSpline
 70
8
 71
3
 72
8
 73
4
 74
0
 40
0
 40
0
 40
0
 40
0
 40
1
 40
1
 40
1
 40
1
 10
0.530937
 20
2.818958
 30
0.0
 10
0.521250
 20
2.817187
 30
0.0
 10
0.507917
 20
2.815937
 30
0.0
 10
0.495312
 20
2.812396
 30
0.0
  0
SPLINE
  5
1d1
100
AcDbEntity
  8
0
 62
7
100
AcDbSpline
 70
8
 71
3
 72
8
 73
4
 74
0
 40
0
 40
0
 40
0
 40
0
 40
1
 40
1
 40
1
 40
1
 10
0.495312
 20
2.812396
 30
0.0
 10
0.468750
 20
2.805000
 30
0.0
 10
0.447500
 20
2.788958
 30
0.0
 10
0.431562
 20
2.766875
 30
0.0
  0
SPLINE
  5
1d2
100
AcDbEntity
  8
0
 62
7
100
AcDbSpline
 70
8
 71
3
 72
8
 73
4
 74
0
 40
0
 40
0
 40
0
 40
0
 40
1
 40
1
 40
1
 40
1
 10
0.431562
 20
2.766875
 30
0.0
 10
0.414896
 20
2.743646
 30
0.0
 10
0.407083
 20
2.717500
 30
0.0
 10
0.410000
 20
2.688229
 30
0.0
  0
SPLINE
  5
1d3
100
AcDbEntity
  8
0
 62
7
100
AcDbSpline
 70
8
 71
3
 72
8
 73
4
 74
0
 40
0
 40
0
 40
0
 40
0
 40
1
 40
1
 40
1
 40
1
 10
0.410000
 20
2.688229
 30
0.0
 10
0.414479
 20
2.643854
 30
0.0
 10
0.437917
 20
2.612500
 30
0.0
 10
0.475521
 20
2.591458
 30
0.0
  0
SPLINE
  5
1d4
100
AcDbEntity
  8
0
 62
7
100
AcDbSpline
 70
8
 71
3
 72
8
 73
4
 74
0
 40
0
 40
0
 40
0
 40
0
 40
1
 40
1
 40
1
 40
1
 10
0.475521
 20
2.591458
 30
0.0
 10
0.497500
 20
2.579167
 30
0.0
 10
0.522083
 20
2.576042
 30
0.0
 10
0.546979
 20
2.578542
 30
0.0
  0
SPLINE
  5
1d5
100
AcDbEntity
  8
0
 62
7
100
AcDbSpline
 70
8
 71
3
 72
8
 73
4
 74
0
 40
0
 40
0
 40
0
 40
0
 40
1
 40
1
 40
1
 40
1
 10
0.546979
 20
2.578542
 30
0.0
 10
0.582812
 20
2.582187
 30
0.0
 10
0.613333
 20
2.597083
 30
0.0
 10
0.634792
 20
2.626562
 30
0.0
  0
SPLINE
  5
1d6
100
AcDbEntity
  8
0
 62
7
100
AcDbSpline
 70
8
 71
3
 72
8
 73
4
 74
0
 40
0
 40
0
 40
0
 40
0
 40
1
 40
1
 40
1
 40
1
 10
0.634792
 20
2.626562
 30
0.0
 10
0.658021
 20
2.658437
 30
0.0
 10
0.663125
 20
2.694375
 30
0.0
 10
0.651458
 20
2.731875
 30
0.0
  0
SPLINE
  5
1d7
100
AcDbEntity
  8
0
 62
7
100
AcDbSpline
 70
8
 71
3
 72
8
 73
4
 74
0
 40
0
 40
0
 40
0
 40
0
 40
1
 40
1
 40
1
 40
1
 10
0.651458
 20
2.731875
 30
0.0
 10
0.643854
 20
2.756354
 30
0.0
 10
0.630417
 20
2.777292
 30
0.0
 10
0.608750
 20
2.792396
 30
0.0
  0
SPLINE
  5
1d8
100
AcDbEntity
  8
0
 62
7
100
AcDbSpline
 70
8
 71
3
 72
8
 73
4
 74
0
 40
0
 40
0
 40
0
 40
0
 40
1
 40
1
 40
1
 40
1
 10
0.608750
 20
2.792396
 30
0.0
 10
0.594167
 20
2.802604
 30
0.0
 10
0.578333
 20
2.810104
 30
0.0
 10
0.561667
 20
2.815521
 30
0.0
  0
SPLINE
  5
1d9
100
AcDbEntity
  8
0
 62
7
100
AcDbSpline
 70
8
 71
3
 72
8
 73
4
 74
0
 40
0
 40
0
 40
0
 40
0
 40
1
 40
1
 40
1
 40
1
 10
0.561667
 20
2.815521
 30
0.0
 10
0.553229
 20
2.818229
 30
0.0
 10
0.543646
 20
2.817708
 30
0.0
 10
0.530937
 20
2.818958
 30
0.0
  0
LWPOLYLINE
  5
1da
100
AcDbEntity
  8
0
 62
7
100
AcDbPolyline
 90
1
 70
1
 10
0.644792
 20
0.960104
 30
0.0
  0
SPLINE
  5
1db
100
AcDbEntity
  8
0
 62
7
100
AcDbSpline
 70
8
 71
3
 72
8
 73
4
 74
0
 40
0
 40
0
 40
0
 40
0
 40
1
 40
1
 40
1
 40
1
 10
2.240312
 20
0.823229
 30
0.0
 10
2.249062
 20
0.824896
 30
0.0
 10
2.265417
 20
0.825729
 30
0.0
 10
2.279792
 20
0.831354
 30
0.0
  0
SPLINE
  5
1dc
100
AcDbEntity
  8
0
 62
7
100
AcDbSpline
 70
8
 71
3
 72
8
 73
4
 74
0
 40
0
 40
0
 40
0
 40
0
 40
1
 40
1
 40
1
 40
1
 10
2.279792
 20
0.831354
 30
0.0
 10
2.317604
 20
0.846146
 30
0.0
 10
2.343229
 20
0.873854
 30
0.0
 10
2.351875
 20
0.913958
 30
0.0
  0
SPLINE
  5
1dd
100
AcDbEntity
  8
0
 62
7
100
AcDbSpline
 70
8
 71
3
 72
8
 73
4
 74
0
 40
0
 40
0
 40
0
 40
0
 40
1
 40
1
 40
1
 40
1
 10
2.351875
 20
0.913958
 30
0.0
 10
2.360937
 20
0.956354
 30
0.0
 10
2.350521
 20
0.994271
 30
0.0
 10
2.319479
 20
1.025729
 30
0.0
  0
SPLINE
  5
1de
100
AcDbEntity
  8
0
 62
7
100
AcDbSpline
 70
8
 71
3
 72
8
 73
4
 74
0
 40
0
 40
0
 40
0
 40
0
 40
1
 40
1
 40
1
 40
1
 10
2.319479
 20
1.025729
 30
0.0
 10
2.309271
 20
1.036042
 30
0.0
 10
2.297917
 20
1.043958
 30
0.0
 10
2.284687
 20
1.050521
 30
0.0
  0
SPLINE
  5
1df
100
AcDbEntity
  8
0
 62
7
100
AcDbSpline
 70
8
 71
3
 72
8
 73
4
 74
0
 40
0
 40
0
 40
0
 40
0
 40
1
 40
1
 40
1
 40
1
 10
2.284687
 20
1.050521
 30
0.0
 10
2.250104
 20
1.067708
 30
0.0
 10
2.215625
 20
1.065729
 30
0.0
 10
2.181354
 20
1.051771
 30
0.0
  0
SPLINE
  5
1e0
100
AcDbEntity
  8
0
 62
7
100
AcDbSpline
 70
8
 71
3
 72
8
 73
4
 74
0
 40
0
 40
0
 40
0
 40
0
 40
1
 40
1
 40
1
 40
1
 10
2.181354
 20
1.051771
 30
0.0
 10
2.151667
 20
1.039687
 30
0.0
 10
2.132292
 20
1.016250
 30
0.0
 10
2.118333
 20
0.988021
 30
0.0
  0
SPLINE
  5
1e1
100
AcDbEntity
  8
0
 62
7
100
AcDbSpline
 70
8
 71
3
 72
8
 73
4
 74
0
 40
0
 40
0
 40
0
 40
0
 40
1
 40
1
 40
1
 40
1
 10
2.118333
 20
0.988021
 30
0.0
 10
2.093021
 20
0.936458
 30
0.0
 10
2.115000
 20
0.880312
 30
0.0
 10
2.152604
 20
0.849062
 30
0.0
  0
SPLINE
  5
1e2
100
AcDbEntity
  8
0
 62
7
100
AcDbSpline
 70
8
 71
3
 72
8
 73
4
 74
0
 40
0
 40
0
 40
0
 40
0
 40
1
 40
1
 40
1
 40
1
 10
2.152604
 20
0.849062
 30
0.0
 10
2.175833
 20
0.829896
 30
0.0
 10
2.204063
 20
0.824792
 30
0.0
 10
2.240312
 20
0.823229
 30
0.0
  0
LWPOLYLINE
  5
1e3
100
AcDbEntity
  8
0
 62
7
100
AcDbPolyline
 90
1
 70
1
 10
0.530937
 20
2.818958
 30
0.0
  0
LWPOLYLINE
  5
1e4
100
AcDbEntity
  8
0
 62
7
100
AcDbPolyline
 90
1
 70
1
 10
2.240312
 20
0.823229
 30
0.0
  0
SPLINE
  5
1e5
100
AcDbEntity
  8
0
 62
7
100
AcDbSpline
 70
8
 71
3
 72
8
 73
4
 74
0
 40
0
 40
0
 40
0
 40
0
 40
1
 40
1
 40
1
 40
1
 10
2.256979
 20
2.565417
 30
0.0
 10
2.292187
 20
2.565625
 30
0.0
 10
2.320104
 20
2.580521
 30
0.0
 10
2.341771
 20
2.607708
 30
0.0
  0
SPLINE
  5
1e6
100
AcDbEntity
  8
0
 62
7
100
AcDbSpline
 70
8
 71
3
 72
8
 73
4
 74
0
 40
0
 40
0
 40
0
 40
0
 40
1
 40
1
 40
1
 40
1
 10
2.341771
 20
2.607708
 30
0.0
 10
2.353646
 20
2.622604
 30
0.0
 10
2.359479
 20
2.639896
 30
0.0
 10
2.364167
 20
2.658437
 30
0.0
  0
SPLINE
  5
1e7
100
AcDbEntity
  8
0
 62
7
100
AcDbSpline
 70
8
 71
3
 72
8
 73
4
 74
0
 40
0
 40
0
 40
0
 40
0
 40
1
 40
1
 40
1
 40
1
 10
2.364167
 20
2.658437
 30
0.0
 10
2.370833
 20
2.684896
 30
0.0
 10
2.364688
 20
2.709271
 30
0.0
 10
2.354896
 20
2.732292
 30
0.0
  0
SPLINE
  5
1e8
100
AcDbEntity
  8
0
 62
7
100
AcDbSpline
 70
8
 71
3
 72
8
 73
4
 74
0
 40
0
 40
0
 40
0
 40
0
 40
1
 40
1
 40
1
 40
1
 10
2.354896
 20
2.732292
 30
0.0
 10
2.343750
 20
2.758437
 30
0.0
 10
2.322500
 20
2.776979
 30
0.0
 10
2.296979
 20
2.789583
 30
0.0
  0
SPLINE
  5
1e9
100
AcDbEntity
  8
0
 62
7
100
AcDbSpline
 70
8
 71
3
 72
8
 73
4
 74
0
 40
0
 40
0
 40
0
 40
0
 40
1
 40
1
 40
1
 40
1
 10
2.296979
 20
2.789583
 30
0.0
 10
2.277813
 20
2.799062
 30
0.0
 10
2.257292
 20
2.801562
 30
0.0
 10
2.235729
 20
2.801146
 30
0.0
  0
SPLINE
  5
1ea
100
AcDbEntity
  8
0
 62
7
100
AcDbSpline
 70
8
 71
3
 72
8
 73
4
 74
0
 40
0
 40
0
 40
0
 40
0
 40
1
 40
1
 40
1
 40
1
 10
2.235729
 20
2.801146
 30
0.0
 10
2.215104
 20
2.800729
 30
0.0
 10
2.196354
 20
2.795521
 30
0.0
 10
2.179375
 20
2.785417
 30
0.0
  0
SPLINE
  5
1eb
100
AcDbEntity
  8
0
 62
7
100
AcDbSpline
 70
8
 71
3
 72
8
 73
4
 74
0
 40
0
 40
0
 40
0
 40
0
 40
1
 40
1
 40
1
 40
1
 10
2.179375
 20
2.785417
 30
0.0
 10
2.142917
 20
2.763854
 30
0.0
 10
2.122604
 20
2.731250
 30
0.0
 10
2.120417
 20
2.688750
 30
0.0
  0
SPLINE
  5
1ec
100
AcDbEntity
  8
0
 62
7
100
AcDbSpline
 70
8
 71
3
 72
8
 73
4
 74
0
 40
0
 40
0
 40
0
 40
0
 40
1
 40
1
 40
1
 40
1
 10
2.120417
 20
2.688750
 30
0.0
 10
2.117917
 20
2.640312
 30
0.0
 10
2.139687
 20
2.603958
 30
0.0
 10
2.180833
 20
2.579479
 30
0.0
  0
SPLINE
  5
1ed
100
AcDbEntity
  8
0
 62
7
100
AcDbSpline
 70
8
 71
3
 72
8
 73
4
 74
0
 40
0
 40
0
 40
0
 40
0
 40
1
 40
1
 40
1
 40
1
 10
2.180833
 20
2.579479
 30
0.0
 10
2.200417
 20
2.567604
 30
0.0
 10
2.222812
 20
2.564479
 30
0.0
 10
2.245729
 20
2.565417
 30
0.0
  0
LWPOLYLINE
  5
1ee
100
AcDbEntity
  8
0
 62
7
100
AcDbPolyline
 90
2
 70
0
 10
2.245729
 20
2.565417
 30
0.0
 10
2.256979
 20
2.565417
 30
0.0
  0
LWPOLYLINE
  5
1ef
100
AcDbEntity
  8
0
 62
7
100
AcDbPolyline
 90
1
 70
1
 10
2.245729
 20
2.565417
 30
0.0
  0
ENDSEC
  0
SECTION
  2
OBJECTS
  0
DICTIONARY
  5
C
330
0
100
AcDbDictionary
  3
ACAD_GROUP
350
D
  3
ACAD_MLINESTYLE
350
17
  0
DICTIONARY
  5
D
330
C
100
AcDbDictionary
  0
DICTIONARY
  5
1A
330
C
100
AcDbDictionary
  0
DICTIONARY
  5
17
330
C
100
AcDbDictionary
  3
STANDARD
350
18
  0
DICTIONARY
  5
19
330
C
100
AcDbDictionary
  0
ENDSEC
  0
EOF
